<svg xmlns="http://www.w3.org/2000/svg" xmlns:xlink="http://www.w3.org/1999/xlink" width="3840" zoomAndPan="magnify" viewBox="0 0 2880 809.999993" height="1080" preserveAspectRatio="xMidYMid meet" version="1.0"><defs><g/><clipPath id="81f33bcbe7"><path d="M 0.640625 282 L 230 282 L 230 318 L 0.640625 318 Z M 0.640625 282 " clip-rule="nonzero"/></clipPath><clipPath id="5b128079b9"><path d="M 0.640625 12 L 448 12 L 448 401 L 0.640625 401 Z M 0.640625 12 " clip-rule="nonzero"/></clipPath><clipPath id="e01a504dac"><path d="M 254.125 125.464844 L 698.109375 125.464844 L 698.109375 569.449219 L 254.125 569.449219 Z M 254.125 125.464844 " clip-rule="nonzero"/></clipPath><clipPath id="be4f37ed41"><path d="M 476.117188 125.464844 C 353.511719 125.464844 254.125 224.851562 254.125 347.457031 C 254.125 470.058594 353.511719 569.449219 476.117188 569.449219 C 598.71875 569.449219 698.109375 470.058594 698.109375 347.457031 C 698.109375 224.851562 598.71875 125.464844 476.117188 125.464844 Z M 476.117188 125.464844 " clip-rule="nonzero"/></clipPath><clipPath id="ae0c364935"><path d="M 0.125 0.464844 L 444.109375 0.464844 L 444.109375 444.449219 L 0.125 444.449219 Z M 0.125 0.464844 " clip-rule="nonzero"/></clipPath><clipPath id="49b83f7b43"><path d="M 222.117188 0.464844 C 99.511719 0.464844 0.125 99.851562 0.125 222.457031 C 0.125 345.058594 99.511719 444.449219 222.117188 444.449219 C 344.71875 444.449219 444.109375 345.058594 444.109375 222.457031 C 444.109375 99.851562 344.71875 0.464844 222.117188 0.464844 Z M 222.117188 0.464844 " clip-rule="nonzero"/></clipPath><clipPath id="4828f99984"><rect x="0" width="445" y="0" height="445"/></clipPath><clipPath id="8690fbcf42"><path d="M 445.761719 317.101562 L 506.46875 317.101562 L 506.46875 377.808594 L 445.761719 377.808594 Z M 445.761719 317.101562 " clip-rule="nonzero"/></clipPath><clipPath id="f18511ba1d"><path d="M 476.117188 317.101562 C 459.351562 317.101562 445.761719 330.691406 445.761719 347.457031 C 445.761719 364.21875 459.351562 377.808594 476.117188 377.808594 C 492.878906 377.808594 506.46875 364.21875 506.46875 347.457031 C 506.46875 330.691406 492.878906 317.101562 476.117188 317.101562 Z M 476.117188 317.101562 " clip-rule="nonzero"/></clipPath><clipPath id="e0019051cd"><path d="M 0.761719 0.101562 L 61.46875 0.101562 L 61.46875 60.808594 L 0.761719 60.808594 Z M 0.761719 0.101562 " clip-rule="nonzero"/></clipPath><clipPath id="ed50b80753"><path d="M 31.117188 0.101562 C 14.351562 0.101562 0.761719 13.691406 0.761719 30.457031 C 0.761719 47.21875 14.351562 60.808594 31.117188 60.808594 C 47.878906 60.808594 61.46875 47.21875 61.46875 30.457031 C 61.46875 13.691406 47.878906 0.101562 31.117188 0.101562 Z M 31.117188 0.101562 " clip-rule="nonzero"/></clipPath><clipPath id="edc7c6f61c"><rect x="0" width="62" y="0" height="61"/></clipPath><clipPath id="bd298b9aa9"><path d="M 471 0.558594 L 817 0.558594 L 817 320 L 471 320 Z M 471 0.558594 " clip-rule="nonzero"/></clipPath><clipPath id="f4ec1ca11a"><rect x="0" width="2145" y="0" height="695"/></clipPath></defs><g transform="matrix(1, 0, 0, 1, 368, 82)"><g clip-path="url(#f4ec1ca11a)"><g fill="#000000" fill-opacity="1"><g transform="translate(708.31121, 421.453508)"><g><path d="M 200.875 -167.015625 C 210.070312 -167.015625 214.671875 -163.253906 214.671875 -155.734375 C 214.671875 -153.390625 214.171875 -150.460938 213.171875 -146.953125 L 207.140625 -126.640625 C 205.304688 -120.453125 203.050781 -116.101562 200.375 -113.59375 C 197.695312 -111.09375 193.851562 -109.84375 188.84375 -109.84375 C 184.65625 -109.84375 181.429688 -110.925781 179.171875 -113.09375 C 176.921875 -115.269531 174.789062 -118.703125 172.78125 -123.390625 L 168.53125 -133.671875 C 167.1875 -136.847656 165.757812 -139.019531 164.25 -140.1875 C 162.75 -141.351562 160.410156 -141.9375 157.234375 -141.9375 L 151.46875 -141.9375 L 119.625 -29.84375 C 119.125 -27.664062 118.875 -25.742188 118.875 -24.078125 C 118.875 -22.066406 119.164062 -20.390625 119.75 -19.046875 C 120.332031 -17.710938 121.207031 -16.296875 122.375 -14.796875 C 123.882812 -12.453125 124.640625 -10.53125 124.640625 -9.03125 C 124.640625 -8.695312 124.472656 -7.859375 124.140625 -6.515625 C 123.304688 -4.347656 121.675781 -2.757812 119.25 -1.75 C 116.820312 -0.75 113.351562 -0.25 108.84375 -0.25 L 49.90625 -0.25 C 46.394531 -0.25 43.675781 -0.832031 41.75 -2 C 39.832031 -3.175781 38.875 -4.847656 38.875 -7.015625 C 38.875 -8.023438 39.125 -9.03125 39.625 -10.03125 C 40.289062 -11.53125 41.082031 -12.65625 42 -13.40625 C 42.925781 -14.164062 44.304688 -15.128906 46.140625 -16.296875 C 48.648438 -17.804688 50.738281 -19.476562 52.40625 -21.3125 C 54.082031 -23.15625 55.503906 -26 56.671875 -29.84375 L 88.28125 -141.9375 L 82.5 -141.9375 C 78.820312 -141.9375 75.8125 -141.351562 73.46875 -140.1875 C 71.132812 -139.019531 68.628906 -136.847656 65.953125 -133.671875 L 57.6875 -123.390625 C 53.832031 -118.867188 50.109375 -115.476562 46.515625 -113.21875 C 42.921875 -110.96875 39.035156 -109.84375 34.859375 -109.84375 C 31.015625 -109.84375 28.003906 -110.84375 25.828125 -112.84375 C 23.660156 -114.851562 22.578125 -117.613281 22.578125 -121.125 C 22.578125 -122.800781 22.828125 -124.640625 23.328125 -126.640625 L 29.84375 -149.46875 C 31.175781 -154.144531 32.675781 -157.695312 34.34375 -160.125 C 36.019531 -162.550781 38.40625 -164.304688 41.5 -165.390625 C 44.59375 -166.472656 48.984375 -167.015625 54.671875 -167.015625 Z M 200.875 -167.015625 "/></g></g></g><g fill="#000000" fill-opacity="1"><g transform="translate(898.655527, 421.453508)"><g><path d="M 132.921875 -132.65625 C 140.273438 -132.65625 146.164062 -129.6875 150.59375 -123.75 C 155.019531 -117.820312 157.234375 -109.757812 157.234375 -99.5625 C 157.234375 -90.695312 155.644531 -81.164062 152.46875 -70.96875 C 146.289062 -50.40625 136.382812 -31.007812 122.75 -12.78125 C 109.125 5.4375 93.492188 20.0625 75.859375 31.09375 C 58.222656 42.132812 40.628906 47.65625 23.078125 47.65625 C 14.378906 47.65625 6.894531 46.148438 0.625 43.140625 C -5.644531 40.128906 -10.410156 36.113281 -13.671875 31.09375 C -16.929688 26.082031 -18.5625 20.734375 -18.5625 15.046875 C -18.5625 12.535156 -18.140625 9.773438 -17.296875 6.765625 C -15.796875 2.085938 -13.289062 -1.503906 -9.78125 -4.015625 C -6.269531 -6.523438 -2.085938 -7.78125 2.765625 -7.78125 C 10.453125 -7.78125 16.757812 -5.144531 21.6875 0.125 C 26.625 5.394531 29.757812 12.625 31.09375 21.8125 C 41.789062 21.3125 51.65625 16.71875 60.6875 8.03125 C 52.164062 6.519531 45.851562 3.632812 41.75 -0.625 C 37.65625 -4.882812 34.859375 -11.53125 33.359375 -20.5625 L 23.328125 -82 C 22.828125 -85.175781 22.113281 -87.390625 21.1875 -88.640625 C 20.269531 -89.898438 19.0625 -90.53125 17.5625 -90.53125 C 16.382812 -90.53125 15 -89.941406 13.40625 -88.765625 C 11.820312 -87.597656 10.695312 -87.015625 10.03125 -87.015625 C 8.695312 -87.015625 8.03125 -88.4375 8.03125 -91.28125 C 8.03125 -93.625 8.445312 -96.132812 9.28125 -98.8125 C 12.289062 -108.34375 17.890625 -116.410156 26.078125 -123.015625 C 34.273438 -129.617188 43.804688 -132.921875 54.671875 -132.921875 C 65.367188 -132.921875 73.265625 -129.742188 78.359375 -123.390625 C 83.460938 -117.035156 86.769531 -107.253906 88.28125 -94.046875 L 95.796875 -38.875 C 96.296875 -34.695312 97.800781 -32.609375 100.3125 -32.609375 C 103.320312 -32.609375 106.832031 -35.320312 110.84375 -40.75 C 114.851562 -46.1875 118.78125 -53.921875 122.625 -63.953125 C 117.613281 -68.460938 113.769531 -73.644531 111.09375 -79.5 C 108.414062 -85.351562 107.078125 -91.625 107.078125 -98.3125 C 107.078125 -103.488281 107.75 -108.164062 109.09375 -112.34375 C 111.09375 -119.03125 114.222656 -124.085938 118.484375 -127.515625 C 122.753906 -130.941406 127.566406 -132.65625 132.921875 -132.65625 Z M 132.921875 -132.65625 "/></g></g></g><g fill="#000000" fill-opacity="1"><g transform="translate(1054.14101, 421.453508)"><g><path d="M 131.15625 -133.671875 C 144.03125 -133.671875 154.144531 -129.40625 161.5 -120.875 C 168.851562 -112.351562 172.53125 -100.734375 172.53125 -86.015625 C 172.53125 -78.160156 171.445312 -69.882812 169.28125 -61.1875 C 164.257812 -40.457031 154.894531 -24.703125 141.1875 -13.921875 C 127.476562 -3.140625 111.597656 2.25 93.546875 2.25 C 82.003906 2.25 71.972656 -0.171875 63.453125 -5.015625 L 55.421875 21.8125 C 54.753906 23.65625 54.421875 25.410156 54.421875 27.078125 C 54.421875 28.921875 54.835938 30.46875 55.671875 31.71875 C 56.503906 32.976562 57.59375 34.191406 58.9375 35.359375 C 60.269531 36.691406 61.144531 37.773438 61.5625 38.609375 C 61.976562 39.453125 62.019531 40.457031 61.6875 41.625 C 61.019531 43.800781 59.429688 45.347656 56.921875 46.265625 C 54.421875 47.191406 50.578125 47.65625 45.390625 47.65625 L -12.03125 47.65625 C -16.382812 47.65625 -19.519531 46.941406 -21.4375 45.515625 C -23.363281 44.097656 -23.910156 42.300781 -23.078125 40.125 C -22.742188 38.789062 -22.15625 37.703125 -21.3125 36.859375 C -20.476562 36.023438 -19.3125 35.273438 -17.8125 34.609375 C -15.300781 32.929688 -13.289062 31.210938 -11.78125 29.453125 C -10.28125 27.703125 -8.945312 24.90625 -7.78125 21.0625 L 28.84375 -99.0625 C 29.34375 -100.5625 29.59375 -101.816406 29.59375 -102.828125 C 29.59375 -104.660156 29.171875 -106.117188 28.328125 -107.203125 C 27.492188 -108.296875 26.242188 -109.425781 24.578125 -110.59375 C 22.898438 -111.925781 21.726562 -113.09375 21.0625 -114.09375 C 20.394531 -115.101562 20.3125 -116.445312 20.8125 -118.125 C 21.8125 -121.96875 27.078125 -125.347656 36.609375 -128.265625 C 46.140625 -131.191406 56.085938 -132.65625 66.453125 -132.65625 C 73.804688 -132.65625 79.863281 -130.816406 84.625 -127.140625 C 89.394531 -123.460938 92.117188 -118.363281 92.796875 -111.84375 C 104.160156 -126.394531 116.945312 -133.671875 131.15625 -133.671875 Z M 102.0625 -59.1875 C 106.082031 -74.0625 108.09375 -84.34375 108.09375 -90.03125 C 108.09375 -93.539062 107.546875 -95.835938 106.453125 -96.921875 C 105.367188 -98.015625 103.820312 -98.5625 101.8125 -98.5625 C 100.3125 -98.5625 98.390625 -97.847656 96.046875 -96.421875 C 93.703125 -95.003906 91.363281 -92.625 89.03125 -89.28125 L 69.21875 -23.578125 C 71.21875 -21.566406 73.640625 -20.5625 76.484375 -20.5625 C 81.003906 -20.5625 85.3125 -23.109375 89.40625 -28.203125 C 93.5 -33.304688 97.71875 -43.632812 102.0625 -59.1875 Z M 102.0625 -59.1875 "/></g></g></g><g fill="#000000" fill-opacity="1"><g transform="translate(1227.432058, 421.453508)"><g><path d="M 85.015625 -133.921875 C 106.242188 -133.921875 121.625 -130.535156 131.15625 -123.765625 C 140.6875 -116.992188 145.453125 -108.34375 145.453125 -97.8125 C 145.453125 -94.632812 145.117188 -91.707031 144.453125 -89.03125 C 141.941406 -77.988281 134.957031 -70.085938 123.5 -65.328125 C 112.050781 -60.566406 98.554688 -58.1875 83.015625 -58.1875 C 75.148438 -58.1875 67.789062 -58.6875 60.9375 -59.6875 C 60.769531 -50.988281 63.109375 -44.882812 67.953125 -41.375 C 72.804688 -37.863281 79.582031 -36.109375 88.28125 -36.109375 C 92.289062 -36.109375 96.132812 -36.566406 99.8125 -37.484375 C 103.488281 -38.410156 108.171875 -39.789062 113.859375 -41.625 C 118.535156 -43.300781 121.710938 -44.140625 123.390625 -44.140625 C 125.222656 -44.140625 126.140625 -43.050781 126.140625 -40.875 C 126.304688 -35.019531 124.132812 -28.875 119.625 -22.4375 C 115.113281 -16.007812 108.425781 -10.535156 99.5625 -6.015625 C 90.695312 -1.503906 79.992188 0.75 67.453125 0.75 C 48.898438 0.75 33.6875 -3.925781 21.8125 -13.28125 C 9.945312 -22.644531 4.015625 -36.273438 4.015625 -54.171875 C 4.015625 -59.179688 4.679688 -65.03125 6.015625 -71.71875 C 10.191406 -92.28125 19.34375 -107.785156 33.46875 -118.234375 C 47.601562 -128.691406 64.785156 -133.921875 85.015625 -133.921875 Z M 62.703125 -74.734375 C 63.367188 -74.566406 64.285156 -74.484375 65.453125 -74.484375 C 72.472656 -74.484375 77.820312 -77.742188 81.5 -84.265625 C 85.175781 -90.785156 86.929688 -98.054688 86.765625 -106.078125 C 86.597656 -110.765625 85.265625 -113.109375 82.765625 -113.109375 C 80.921875 -113.109375 78.742188 -111.644531 76.234375 -108.71875 C 73.722656 -105.789062 71.253906 -101.398438 68.828125 -95.546875 C 66.410156 -89.691406 64.367188 -82.753906 62.703125 -74.734375 Z M 62.703125 -74.734375 "/></g></g></g><g fill="#000000" fill-opacity="1"><g transform="translate(1367.870547, 421.453508)"><g><path d="M 93.796875 -168.53125 C 103.160156 -168.53125 111.8125 -167.398438 119.75 -165.140625 C 127.6875 -162.878906 135.753906 -159.328125 143.953125 -154.484375 L 149.71875 -159.25 C 153.726562 -162.425781 157.03125 -164.597656 159.625 -165.765625 C 162.21875 -166.929688 165.1875 -167.515625 168.53125 -167.515625 C 172.539062 -167.515625 175.710938 -166.632812 178.046875 -164.875 C 180.390625 -163.125 181.5625 -160.578125 181.5625 -157.234375 C 181.5625 -155.898438 181.3125 -154.484375 180.8125 -152.984375 L 170.28125 -118.375 C 169.113281 -114.351562 167.648438 -111.503906 165.890625 -109.828125 C 164.140625 -108.160156 161.507812 -107.328125 158 -107.328125 C 154.3125 -107.328125 151.085938 -108.457031 148.328125 -110.71875 C 145.578125 -112.976562 141.273438 -117.617188 135.421875 -124.640625 C 129.566406 -131.328125 124.253906 -136.050781 119.484375 -138.8125 C 114.722656 -141.570312 109.835938 -142.953125 104.828125 -142.953125 C 101.148438 -142.953125 98.054688 -141.738281 95.546875 -139.3125 C 93.035156 -136.882812 91.78125 -133.914062 91.78125 -130.40625 C 91.78125 -126.394531 93.785156 -122.675781 97.796875 -119.25 C 101.816406 -115.820312 108.085938 -111.515625 116.609375 -106.328125 C 125.304688 -101.148438 132.492188 -96.46875 138.171875 -92.28125 C 143.859375 -88.101562 148.707031 -82.921875 152.71875 -76.734375 C 156.738281 -70.546875 158.75 -63.441406 158.75 -55.421875 C 158.75 -50.242188 157.910156 -45.0625 156.234375 -39.875 C 152.222656 -26.5 144.445312 -16.34375 132.90625 -9.40625 C 121.375 -2.46875 107.914062 1 92.53125 1 C 81 1 71.300781 -0.332031 63.4375 -3 C 55.582031 -5.675781 47.5625 -10.191406 39.375 -16.546875 L 30.34375 -9.03125 C 26.164062 -5.519531 22.738281 -3.132812 20.0625 -1.875 C 17.382812 -0.625 14.375 0 11.03125 0 C 7.1875 0 4.132812 -0.914062 1.875 -2.75 C -0.375 -4.59375 -1.5 -7.101562 -1.5 -10.28125 C -1.5 -11.957031 -1.164062 -13.710938 -0.5 -15.546875 L 11.78125 -52.921875 C 13.125 -57.265625 14.960938 -60.351562 17.296875 -62.1875 C 19.640625 -64.03125 22.648438 -64.953125 26.328125 -64.953125 C 30.171875 -64.953125 33.640625 -63.613281 36.734375 -60.9375 C 39.828125 -58.257812 43.882812 -53.410156 48.90625 -46.390625 C 54.25 -38.703125 59.21875 -33.351562 63.8125 -30.34375 C 68.414062 -27.332031 73.894531 -25.828125 80.25 -25.828125 C 84.757812 -25.828125 88.226562 -26.535156 90.65625 -27.953125 C 93.082031 -29.378906 94.796875 -31.679688 95.796875 -34.859375 C 96.128906 -35.691406 96.296875 -36.945312 96.296875 -38.625 C 96.296875 -42.632812 94.375 -46.3125 90.53125 -49.65625 C 86.6875 -53 80.753906 -57.007812 72.734375 -61.6875 C 64.203125 -66.875 57.257812 -71.515625 51.90625 -75.609375 C 46.5625 -79.703125 41.921875 -84.84375 37.984375 -91.03125 C 34.054688 -97.21875 32.09375 -104.492188 32.09375 -112.859375 C 32.09375 -118.703125 33.015625 -124.46875 34.859375 -130.15625 C 38.367188 -141.6875 45.554688 -150.960938 56.421875 -157.984375 C 67.296875 -165.015625 79.753906 -168.53125 93.796875 -168.53125 Z M 93.796875 -168.53125 "/></g></g></g><g fill="#000000" fill-opacity="1"><g transform="translate(1540.660083, 421.453508)"><g><path d="M 85.015625 -133.921875 C 106.242188 -133.921875 121.625 -130.535156 131.15625 -123.765625 C 140.6875 -116.992188 145.453125 -108.34375 145.453125 -97.8125 C 145.453125 -94.632812 145.117188 -91.707031 144.453125 -89.03125 C 141.941406 -77.988281 134.957031 -70.085938 123.5 -65.328125 C 112.050781 -60.566406 98.554688 -58.1875 83.015625 -58.1875 C 75.148438 -58.1875 67.789062 -58.6875 60.9375 -59.6875 C 60.769531 -50.988281 63.109375 -44.882812 67.953125 -41.375 C 72.804688 -37.863281 79.582031 -36.109375 88.28125 -36.109375 C 92.289062 -36.109375 96.132812 -36.566406 99.8125 -37.484375 C 103.488281 -38.410156 108.171875 -39.789062 113.859375 -41.625 C 118.535156 -43.300781 121.710938 -44.140625 123.390625 -44.140625 C 125.222656 -44.140625 126.140625 -43.050781 126.140625 -40.875 C 126.304688 -35.019531 124.132812 -28.875 119.625 -22.4375 C 115.113281 -16.007812 108.425781 -10.535156 99.5625 -6.015625 C 90.695312 -1.503906 79.992188 0.75 67.453125 0.75 C 48.898438 0.75 33.6875 -3.925781 21.8125 -13.28125 C 9.945312 -22.644531 4.015625 -36.273438 4.015625 -54.171875 C 4.015625 -59.179688 4.679688 -65.03125 6.015625 -71.71875 C 10.191406 -92.28125 19.34375 -107.785156 33.46875 -118.234375 C 47.601562 -128.691406 64.785156 -133.921875 85.015625 -133.921875 Z M 62.703125 -74.734375 C 63.367188 -74.566406 64.285156 -74.484375 65.453125 -74.484375 C 72.472656 -74.484375 77.820312 -77.742188 81.5 -84.265625 C 85.175781 -90.785156 86.929688 -98.054688 86.765625 -106.078125 C 86.597656 -110.765625 85.265625 -113.109375 82.765625 -113.109375 C 80.921875 -113.109375 78.742188 -111.644531 76.234375 -108.71875 C 73.722656 -105.789062 71.253906 -101.398438 68.828125 -95.546875 C 66.410156 -89.691406 64.367188 -82.753906 62.703125 -74.734375 Z M 62.703125 -74.734375 "/></g></g></g><g fill="#000000" fill-opacity="1"><g transform="translate(1681.098572, 421.453508)"><g><path d="M 112.09375 -129.40625 C 115.269531 -129.40625 117.734375 -128.734375 119.484375 -127.390625 C 121.242188 -126.054688 122.125 -124.21875 122.125 -121.875 C 122.125 -121.207031 121.957031 -120.039062 121.625 -118.375 C 119.457031 -111.007812 114.441406 -107.328125 106.578125 -107.328125 L 92.03125 -107.328125 L 73.234375 -45.390625 C 72.390625 -42.878906 71.96875 -40.289062 71.96875 -37.625 C 71.96875 -34.613281 72.800781 -32.519531 74.46875 -31.34375 C 76.144531 -30.175781 78.488281 -29.59375 81.5 -29.59375 C 84.175781 -29.59375 87.519531 -29.925781 91.53125 -30.59375 C 93.539062 -31.09375 95.296875 -31.34375 96.796875 -31.34375 C 97.972656 -31.34375 98.851562 -30.96875 99.4375 -30.21875 C 100.019531 -29.46875 100.3125 -28.503906 100.3125 -27.328125 C 100.476562 -23.984375 98.007812 -19.929688 92.90625 -15.171875 C 87.8125 -10.410156 80.914062 -6.316406 72.21875 -2.890625 C 63.53125 0.535156 53.921875 2.25 43.390625 2.25 C 32.015625 2.25 22.898438 -0.335938 16.046875 -5.515625 C 9.191406 -10.703125 5.765625 -17.804688 5.765625 -26.828125 C 5.765625 -31.015625 6.4375 -35.03125 7.78125 -38.875 L 23.828125 -88.53125 C 24.660156 -91.375 25.078125 -93.628906 25.078125 -95.296875 C 25.078125 -98.640625 24.28125 -101.476562 22.6875 -103.8125 C 21.101562 -106.15625 18.890625 -108.582031 16.046875 -111.09375 C 13.535156 -113.4375 11.78125 -115.398438 10.78125 -116.984375 C 9.78125 -118.578125 9.53125 -120.457031 10.03125 -122.625 C 10.695312 -124.800781 12.117188 -126.472656 14.296875 -127.640625 C 16.472656 -128.816406 19.898438 -129.40625 24.578125 -129.40625 L 38.625 -129.40625 L 54.421875 -145.203125 C 59.941406 -150.722656 65 -154.566406 69.59375 -156.734375 C 74.1875 -158.910156 80.160156 -160 87.515625 -160 C 98.054688 -160 103.328125 -155.988281 103.328125 -147.96875 C 103.328125 -145.457031 102.988281 -143.113281 102.3125 -140.9375 L 98.8125 -129.40625 Z M 112.09375 -129.40625 "/></g></g></g><g fill="#000000" fill-opacity="1"><g transform="translate(1788.935346, 421.453508)"><g><path d="M 74.234375 1.5 C 63.023438 1.5 52.863281 -0.960938 43.75 -5.890625 C 34.644531 -10.828125 27.414062 -18.097656 22.0625 -27.703125 C 16.71875 -37.316406 14.046875 -48.8125 14.046875 -62.1875 C 14.046875 -72.382812 15.800781 -83.753906 19.3125 -96.296875 C 27 -123.046875 39.078125 -141.9375 55.546875 -152.96875 C 72.015625 -164.007812 89.613281 -169.53125 108.34375 -169.53125 C 125.394531 -169.53125 140.773438 -163.34375 154.484375 -150.96875 L 162 -158.25 C 166.1875 -161.757812 169.78125 -164.179688 172.78125 -165.515625 C 175.789062 -166.847656 179.304688 -167.515625 183.328125 -167.515625 C 187.671875 -167.515625 191.175781 -166.46875 193.84375 -164.375 C 196.519531 -162.289062 197.859375 -159.492188 197.859375 -155.984375 C 197.859375 -154.648438 197.609375 -153.0625 197.109375 -151.21875 L 188.09375 -119.625 C 186.414062 -114.269531 184.445312 -110.503906 182.1875 -108.328125 C 179.9375 -106.160156 176.890625 -105.078125 173.046875 -105.078125 C 169.023438 -105.078125 165.46875 -106.078125 162.375 -108.078125 C 159.28125 -110.085938 155.726562 -113.6875 151.71875 -118.875 C 146.375 -125.894531 141.648438 -130.867188 137.546875 -133.796875 C 133.453125 -136.722656 128.984375 -138.1875 124.140625 -138.1875 C 116.617188 -138.1875 109.46875 -134.378906 102.6875 -126.765625 C 95.914062 -119.160156 90.023438 -106.5 85.015625 -88.78125 C 81.835938 -77.238281 80.25 -67.289062 80.25 -58.9375 C 80.25 -50.070312 81.960938 -43.335938 85.390625 -38.734375 C 88.816406 -34.140625 93.625 -31.84375 99.8125 -31.84375 C 105.164062 -31.84375 109.300781 -33.097656 112.21875 -35.609375 C 115.144531 -38.117188 117.445312 -42.46875 119.125 -48.65625 L 120.875 -54.921875 C 121.707031 -58.265625 122.125 -60.519531 122.125 -61.6875 C 122.125 -63.695312 121.664062 -65.117188 120.75 -65.953125 C 119.832031 -66.785156 118.285156 -67.707031 116.109375 -68.71875 L 107.328125 -71.96875 C 103.484375 -73.476562 101.5625 -76.238281 101.5625 -80.25 C 101.5625 -81.414062 101.644531 -82.335938 101.8125 -83.015625 C 102.488281 -85.179688 103.703125 -86.765625 105.453125 -87.765625 C 107.210938 -88.773438 109.929688 -89.28125 113.609375 -89.28125 L 189.34375 -89.03125 C 194.851562 -89.03125 197.609375 -87.273438 197.609375 -83.765625 C 197.609375 -83.097656 197.441406 -82.09375 197.109375 -80.75 C 196.441406 -78.238281 195.351562 -76.226562 193.84375 -74.71875 C 192.34375 -73.21875 190.171875 -71.71875 187.328125 -70.21875 L 180.8125 -66.453125 C 179.144531 -65.453125 177.890625 -64.488281 177.046875 -63.5625 C 176.210938 -62.644531 175.628906 -61.519531 175.296875 -60.1875 L 162 -13.796875 C 160.332031 -8.273438 158.453125 -4.59375 156.359375 -2.75 C 154.273438 -0.914062 151.726562 0 148.71875 0 L 138.1875 0 C 134.164062 0 130.859375 -0.832031 128.265625 -2.5 C 125.679688 -4.175781 123.550781 -7.4375 121.875 -12.28125 L 119.375 -19.5625 C 107.332031 -5.519531 92.285156 1.5 74.234375 1.5 Z M 74.234375 1.5 "/></g></g></g><g fill="#000000" fill-opacity="1"><g transform="translate(1978.778102, 421.453508)"><g><path d="M 97.046875 -132.65625 C 119.785156 -132.65625 136.546875 -128.054688 147.328125 -118.859375 C 158.117188 -109.671875 163.515625 -97.640625 163.515625 -82.765625 C 163.515625 -77.742188 162.84375 -72.140625 161.5 -65.953125 C 158.320312 -52.242188 152.382812 -40.25 143.6875 -29.96875 C 135 -19.6875 124.34375 -11.742188 111.71875 -6.140625 C 99.101562 -0.546875 85.4375 2.25 70.71875 2.25 C 47.476562 2.25 30.300781 -2.382812 19.1875 -11.65625 C 8.070312 -20.9375 2.515625 -33.269531 2.515625 -48.65625 C 2.515625 -53.832031 3.179688 -59.597656 4.515625 -65.953125 C 7.691406 -78.992188 13.75 -90.570312 22.6875 -100.6875 C 31.632812 -110.800781 42.585938 -118.65625 55.546875 -124.25 C 68.503906 -129.851562 82.335938 -132.65625 97.046875 -132.65625 Z M 96.296875 -110.34375 C 92.785156 -110.34375 89.066406 -107.207031 85.140625 -100.9375 C 81.210938 -94.664062 76.570312 -82.835938 71.21875 -65.453125 C 65.875 -48.066406 63.203125 -35.863281 63.203125 -28.84375 C 63.203125 -25.164062 63.785156 -22.695312 64.953125 -21.4375 C 66.117188 -20.1875 67.707031 -19.5625 69.71875 -19.5625 C 73.226562 -19.226562 76.863281 -22.238281 80.625 -28.59375 C 84.382812 -34.945312 89.109375 -47.316406 94.796875 -65.703125 C 99.972656 -81.921875 102.5625 -93.707031 102.5625 -101.0625 C 102.5625 -104.570312 102.019531 -106.992188 100.9375 -108.328125 C 99.851562 -109.671875 98.304688 -110.34375 96.296875 -110.34375 Z M 96.296875 -110.34375 "/></g></g></g><path stroke-linecap="round" transform="matrix(0.685163, 0, 0, 0.685163, 104.498493, 480.649752)" fill="none" stroke-linejoin="miter" d="M 25.001942 24.997825 L 214.076395 24.997825 " stroke="#545454" stroke-width="50" stroke-opacity="1" stroke-miterlimit="4"/><path stroke-linecap="round" transform="matrix(0.685163, -0.000000000000000595, 0.000000000000000595, 0.685163, 49.201671, 381.747057)" fill="none" stroke-linejoin="miter" d="M 25.001866 24.998336 L 238.711185 24.998336 " stroke="#0097b2" stroke-width="50" stroke-opacity="1" stroke-miterlimit="4"/><g clip-path="url(#81f33bcbe7)"><path stroke-linecap="round" transform="matrix(0.685163, 0, 0, 0.685163, 0.669965, 282.844356)" fill="none" stroke-linejoin="miter" d="M 25.002531 24.998858 L 309.543506 24.998858 " stroke="#3cb5ee" stroke-width="50" stroke-opacity="1" stroke-miterlimit="4"/></g><g clip-path="url(#5b128079b9)"><path stroke-linecap="round" transform="matrix(0.685139, 0.00581213, -0.00581213, 0.685139, 106.692187, 188.719478)" fill="none" stroke-linejoin="miter" d="M 25.000617 24.998448 L 214.087612 25.002192 " stroke="#fbb03b" stroke-width="50" stroke-opacity="1" stroke-miterlimit="4"/></g><g clip-path="url(#e01a504dac)"><g clip-path="url(#be4f37ed41)"><g transform="matrix(1, 0, 0, 1, 254, 125)"><g clip-path="url(#4828f99984)"><g clip-path="url(#ae0c364935)"><g clip-path="url(#49b83f7b43)"><path fill="#ffffff" d="M 0.125 0.464844 L 444.109375 0.464844 L 444.109375 444.449219 L 0.125 444.449219 Z M 0.125 0.464844 " fill-opacity="1" fill-rule="nonzero"/></g></g></g></g><path stroke-linecap="butt" transform="matrix(0.685163, 0, 0, 0.685163, 254.123457, 125.46296)" fill="none" stroke-linejoin="miter" d="M 324.001202 0.0027494 C 145.057773 0.0027494 0.0022518 145.058271 0.0022518 324.001699 C 0.0022518 502.939426 145.057773 648.000649 324.001202 648.000649 C 502.938929 648.000649 648.000151 502.939426 648.000151 324.001699 C 648.000151 145.058271 502.938929 0.0027494 324.001202 0.0027494 Z M 324.001202 0.0027494 " stroke="#000000" stroke-width="87.570366" stroke-opacity="1" stroke-miterlimit="4"/></g></g><g clip-path="url(#8690fbcf42)"><g clip-path="url(#f18511ba1d)"><g transform="matrix(1, 0, 0, 1, 445, 317)"><g clip-path="url(#edc7c6f61c)"><g clip-path="url(#e0019051cd)"><g clip-path="url(#ed50b80753)"><path fill="#000000" d="M 0.761719 0.101562 L 61.46875 0.101562 L 61.46875 60.808594 L 0.761719 60.808594 Z M 0.761719 0.101562 " fill-opacity="1" fill-rule="nonzero"/></g></g></g></g></g></g><path stroke-linecap="butt" transform="matrix(0.46137, -0.506544, 0.506544, 0.46137, 468.516562, 340.531629)" fill="none" stroke-linejoin="miter" d="M -0.00243266 14.99938 L 197.183864 15.000812 " stroke="#000000" stroke-width="30" stroke-opacity="1" stroke-miterlimit="4"/><path stroke-linecap="butt" transform="matrix(-0.392033, -0.561924, 0.561924, -0.392033, 459.254891, 347.453865)" fill="none" stroke-linejoin="miter" d="M -0.000873603 14.999099 L 240.306083 15.001143 " stroke="#000000" stroke-width="30" stroke-opacity="1" stroke-miterlimit="4"/><path stroke-linecap="round" transform="matrix(0.685163, 0, 0, 0.685163, 438.432444, 76.551272)" fill="none" stroke-linejoin="miter" d="M 20.001473 19.999078 L 90.000753 19.999078 " stroke="#000000" stroke-width="40" stroke-opacity="1" stroke-miterlimit="4"/><g clip-path="url(#bd298b9aa9)"><path stroke-linecap="round" transform="matrix(0.507156, 0.460697, -0.460697, 0.507156, 625.129682, 112.992745)" fill="none" stroke-linejoin="miter" d="M 20.001431 20.002173 L 89.997804 20.000188 " stroke="#000000" stroke-width="40" stroke-opacity="1" stroke-miterlimit="4"/></g></g></g></svg>