<svg xmlns="http://www.w3.org/2000/svg" xmlns:xlink="http://www.w3.org/1999/xlink" width="3840" zoomAndPan="magnify" viewBox="0 0 2880 1619.99993" height="2160" preserveAspectRatio="xMidYMid meet" version="1.0"><defs><g/><clipPath id="ee249bf890"><path d="M 1335.71875 429.222656 L 1821.71875 429.222656 L 1821.71875 915.222656 L 1335.71875 915.222656 Z M 1335.71875 429.222656 " clip-rule="nonzero"/></clipPath><clipPath id="326a1e7d8a"><path d="M 1578.71875 429.222656 C 1444.511719 429.222656 1335.71875 538.015625 1335.71875 672.222656 C 1335.71875 806.425781 1444.511719 915.222656 1578.71875 915.222656 C 1712.925781 915.222656 1821.71875 806.425781 1821.71875 672.222656 C 1821.71875 538.015625 1712.925781 429.222656 1578.71875 429.222656 Z M 1578.71875 429.222656 " clip-rule="nonzero"/></clipPath><clipPath id="cc00ac1c08"><path d="M 0.71875 0.222656 L 486.71875 0.222656 L 486.71875 486.222656 L 0.71875 486.222656 Z M 0.71875 0.222656 " clip-rule="nonzero"/></clipPath><clipPath id="0140cd9b16"><path d="M 243.71875 0.222656 C 109.511719 0.222656 0.71875 109.015625 0.71875 243.222656 C 0.71875 377.425781 109.511719 486.222656 243.71875 486.222656 C 377.925781 486.222656 486.71875 377.425781 486.71875 243.222656 C 486.71875 109.015625 377.925781 0.222656 243.71875 0.222656 Z M 243.71875 0.222656 " clip-rule="nonzero"/></clipPath><clipPath id="bb0b67220a"><rect x="0" width="487" y="0" height="487"/></clipPath><clipPath id="ce6a44149f"><path d="M 1545.492188 638.996094 L 1611.945312 638.996094 L 1611.945312 705.449219 L 1545.492188 705.449219 Z M 1545.492188 638.996094 " clip-rule="nonzero"/></clipPath><clipPath id="6814df30f1"><path d="M 1578.71875 638.996094 C 1560.367188 638.996094 1545.492188 653.871094 1545.492188 672.222656 C 1545.492188 690.570312 1560.367188 705.449219 1578.71875 705.449219 C 1597.070312 705.449219 1611.945312 690.570312 1611.945312 672.222656 C 1611.945312 653.871094 1597.070312 638.996094 1578.71875 638.996094 Z M 1578.71875 638.996094 " clip-rule="nonzero"/></clipPath><clipPath id="02b080ac55"><path d="M 0.492188 0.996094 L 66.945312 0.996094 L 66.945312 67.449219 L 0.492188 67.449219 Z M 0.492188 0.996094 " clip-rule="nonzero"/></clipPath><clipPath id="2f09fcbb06"><path d="M 33.71875 0.996094 C 15.367188 0.996094 0.492188 15.871094 0.492188 34.222656 C 0.492188 52.570312 15.367188 67.449219 33.71875 67.449219 C 52.070312 67.449219 66.945312 52.570312 66.945312 34.222656 C 66.945312 15.871094 52.070312 0.996094 33.71875 0.996094 Z M 33.71875 0.996094 " clip-rule="nonzero"/></clipPath><clipPath id="45974ddeba"><rect x="0" width="67" y="0" height="68"/></clipPath></defs><g fill="#fbb03b" fill-opacity="1"><g transform="translate(654.6047, 1160.769721)"><g><path d="M 219.890625 -182.828125 C 229.953125 -182.828125 234.984375 -178.707031 234.984375 -170.46875 C 234.984375 -167.90625 234.4375 -164.703125 233.34375 -160.859375 L 226.75 -138.625 C 224.738281 -131.851562 222.269531 -127.09375 219.34375 -124.34375 C 216.414062 -121.601562 212.203125 -120.234375 206.703125 -120.234375 C 202.128906 -120.234375 198.609375 -121.421875 196.140625 -123.796875 C 193.671875 -126.179688 191.335938 -129.9375 189.140625 -135.0625 L 184.46875 -146.3125 C 183.007812 -149.789062 181.457031 -152.171875 179.8125 -153.453125 C 178.164062 -154.734375 175.601562 -155.375 172.125 -155.375 L 165.8125 -155.375 L 130.9375 -32.671875 C 130.394531 -30.285156 130.125 -28.179688 130.125 -26.359375 C 130.125 -24.160156 130.441406 -22.328125 131.078125 -20.859375 C 131.722656 -19.398438 132.6875 -17.847656 133.96875 -16.203125 C 135.613281 -13.640625 136.4375 -11.53125 136.4375 -9.875 C 136.4375 -9.507812 136.253906 -8.597656 135.890625 -7.140625 C 134.972656 -4.753906 133.1875 -3.015625 130.53125 -1.921875 C 127.875 -0.828125 124.078125 -0.28125 119.140625 -0.28125 L 54.625 -0.28125 C 50.78125 -0.28125 47.804688 -0.921875 45.703125 -2.203125 C 43.597656 -3.484375 42.546875 -5.3125 42.546875 -7.6875 C 42.546875 -8.78125 42.820312 -9.878906 43.375 -10.984375 C 44.101562 -12.628906 44.96875 -13.863281 45.96875 -14.6875 C 46.976562 -15.507812 48.492188 -16.5625 50.515625 -17.84375 C 53.253906 -19.488281 55.539062 -21.316406 57.375 -23.328125 C 59.207031 -25.347656 60.765625 -28.460938 62.046875 -32.671875 L 96.625 -155.375 L 90.3125 -155.375 C 86.289062 -155.375 83 -154.734375 80.4375 -153.453125 C 77.875 -152.171875 75.128906 -149.789062 72.203125 -146.3125 L 63.140625 -135.0625 C 58.929688 -130.125 54.859375 -126.414062 50.921875 -123.9375 C 46.984375 -121.46875 42.726562 -120.234375 38.15625 -120.234375 C 33.945312 -120.234375 30.648438 -121.332031 28.265625 -123.53125 C 25.890625 -125.726562 24.703125 -128.75 24.703125 -132.59375 C 24.703125 -134.425781 24.976562 -136.4375 25.53125 -138.625 L 32.671875 -163.609375 C 34.128906 -168.734375 35.773438 -172.625 37.609375 -175.28125 C 39.441406 -177.9375 42.050781 -179.859375 45.4375 -181.046875 C 48.820312 -182.234375 53.625 -182.828125 59.84375 -182.828125 Z M 219.890625 -182.828125 "/></g></g></g><g fill="#fbb03b" fill-opacity="1"><g transform="translate(862.9612, 1160.769721)"><g><path d="M 145.5 -145.21875 C 153.550781 -145.21875 160 -141.96875 164.84375 -135.46875 C 169.695312 -128.976562 172.125 -120.148438 172.125 -108.984375 C 172.125 -99.285156 170.382812 -88.851562 166.90625 -77.6875 C 160.132812 -55.175781 149.289062 -33.945312 134.375 -14 C 119.457031 5.945312 102.34375 21.957031 83.03125 34.03125 C 63.726562 46.113281 44.46875 52.15625 25.25 52.15625 C 15.738281 52.15625 7.550781 50.507812 0.6875 47.21875 C -6.175781 43.925781 -11.390625 39.53125 -14.953125 34.03125 C -18.523438 28.539062 -20.3125 22.6875 -20.3125 16.46875 C -20.3125 13.726562 -19.851562 10.707031 -18.9375 7.40625 C -17.289062 2.28125 -14.546875 -1.648438 -10.703125 -4.390625 C -6.859375 -7.140625 -2.285156 -8.515625 3.015625 -8.515625 C 11.429688 -8.515625 18.335938 -5.632812 23.734375 0.125 C 29.140625 5.894531 32.578125 13.816406 34.046875 23.890625 C 45.753906 23.335938 56.550781 18.300781 66.4375 8.78125 C 57.101562 7.132812 50.191406 3.976562 45.703125 -0.6875 C 41.222656 -5.351562 38.160156 -12.628906 36.515625 -22.515625 L 25.53125 -89.765625 C 24.976562 -93.242188 24.195312 -95.664062 23.1875 -97.03125 C 22.1875 -98.40625 20.863281 -99.09375 19.21875 -99.09375 C 17.9375 -99.09375 16.425781 -98.453125 14.6875 -97.171875 C 12.945312 -95.890625 11.710938 -95.25 10.984375 -95.25 C 9.515625 -95.25 8.78125 -96.804688 8.78125 -99.921875 C 8.78125 -102.484375 9.238281 -105.226562 10.15625 -108.15625 C 13.445312 -118.59375 19.578125 -127.425781 28.546875 -134.65625 C 37.515625 -141.882812 47.945312 -145.5 59.84375 -145.5 C 71.550781 -145.5 80.195312 -142.019531 85.78125 -135.0625 C 91.363281 -128.101562 94.976562 -117.394531 96.625 -102.9375 L 104.859375 -42.546875 C 105.410156 -37.972656 107.0625 -35.6875 109.8125 -35.6875 C 113.101562 -35.6875 116.941406 -38.660156 121.328125 -44.609375 C 125.722656 -50.554688 130.023438 -59.019531 134.234375 -70 C 128.742188 -74.9375 124.535156 -80.609375 121.609375 -87.015625 C 118.679688 -93.421875 117.21875 -100.285156 117.21875 -107.609375 C 117.21875 -113.285156 117.953125 -118.410156 119.421875 -122.984375 C 121.609375 -130.304688 125.035156 -135.84375 129.703125 -139.59375 C 134.367188 -143.34375 139.632812 -145.21875 145.5 -145.21875 Z M 145.5 -145.21875 "/></g></g></g><g fill="#fbb03b" fill-opacity="1"><g transform="translate(1033.160193, 1160.769721)"><g><path d="M 143.578125 -146.3125 C 157.660156 -146.3125 168.726562 -141.644531 176.78125 -132.3125 C 184.832031 -122.976562 188.859375 -110.257812 188.859375 -94.15625 C 188.859375 -85.550781 187.671875 -76.492188 185.296875 -66.984375 C 179.804688 -44.285156 169.554688 -27.035156 154.546875 -15.234375 C 139.546875 -3.429688 122.160156 2.46875 102.390625 2.46875 C 89.765625 2.46875 78.785156 -0.179688 69.453125 -5.484375 L 60.671875 23.890625 C 59.929688 25.898438 59.5625 27.816406 59.5625 29.640625 C 59.5625 31.660156 60.019531 33.351562 60.9375 34.71875 C 61.851562 36.09375 63.046875 37.421875 64.515625 38.703125 C 65.972656 40.171875 66.929688 41.359375 67.390625 42.265625 C 67.847656 43.179688 67.894531 44.28125 67.53125 45.5625 C 66.800781 47.945312 65.0625 49.640625 62.3125 50.640625 C 59.570312 51.648438 55.363281 52.15625 49.6875 52.15625 L -13.171875 52.15625 C -17.929688 52.15625 -21.363281 51.375 -23.46875 49.8125 C -25.570312 48.257812 -26.164062 46.296875 -25.25 43.921875 C -24.882812 42.453125 -24.242188 41.257812 -23.328125 40.34375 C -22.421875 39.4375 -21.140625 38.617188 -19.484375 37.890625 C -16.742188 36.054688 -14.550781 34.175781 -12.90625 32.25 C -11.257812 30.332031 -9.796875 27.269531 -8.515625 23.0625 L 31.5625 -108.4375 C 32.113281 -110.082031 32.390625 -111.453125 32.390625 -112.546875 C 32.390625 -114.566406 31.929688 -116.171875 31.015625 -117.359375 C 30.097656 -118.546875 28.726562 -119.78125 26.90625 -121.0625 C 25.070312 -122.519531 23.789062 -123.796875 23.0625 -124.890625 C 22.332031 -125.992188 22.238281 -127.460938 22.78125 -129.296875 C 23.882812 -133.503906 29.648438 -137.207031 40.078125 -140.40625 C 50.515625 -143.613281 61.40625 -145.21875 72.75 -145.21875 C 80.800781 -145.21875 87.429688 -143.203125 92.640625 -139.171875 C 97.859375 -135.148438 100.835938 -129.570312 101.578125 -122.4375 C 114.015625 -138.351562 128.015625 -146.3125 143.578125 -146.3125 Z M 111.734375 -64.78125 C 116.117188 -81.070312 118.3125 -92.328125 118.3125 -98.546875 C 118.3125 -102.390625 117.71875 -104.90625 116.53125 -106.09375 C 115.34375 -107.289062 113.648438 -107.890625 111.453125 -107.890625 C 109.804688 -107.890625 107.703125 -107.109375 105.140625 -105.546875 C 102.578125 -103.992188 100.015625 -101.390625 97.453125 -97.734375 L 75.765625 -25.796875 C 77.960938 -23.609375 80.617188 -22.515625 83.734375 -22.515625 C 88.671875 -22.515625 93.378906 -25.300781 97.859375 -30.875 C 102.347656 -36.457031 106.972656 -47.757812 111.734375 -64.78125 Z M 111.734375 -64.78125 "/></g></g></g><g fill="#fbb03b" fill-opacity="1"><g transform="translate(1222.849682, 1160.769721)"><g><path d="M 93.0625 -146.59375 C 116.300781 -146.59375 133.132812 -142.882812 143.5625 -135.46875 C 154 -128.0625 159.21875 -118.59375 159.21875 -107.0625 C 159.21875 -103.582031 158.851562 -100.378906 158.125 -97.453125 C 155.375 -85.367188 147.726562 -76.71875 135.1875 -71.5 C 122.65625 -66.289062 107.878906 -63.6875 90.859375 -63.6875 C 82.265625 -63.6875 74.210938 -64.234375 66.703125 -65.328125 C 66.523438 -55.816406 69.085938 -49.140625 74.390625 -45.296875 C 79.703125 -41.453125 87.113281 -39.53125 96.625 -39.53125 C 101.019531 -39.53125 105.226562 -40.03125 109.25 -41.03125 C 113.28125 -42.039062 118.40625 -43.550781 124.625 -45.5625 C 129.75 -47.394531 133.226562 -48.3125 135.0625 -48.3125 C 137.070312 -48.3125 138.078125 -47.125 138.078125 -44.75 C 138.265625 -38.34375 135.882812 -31.613281 130.9375 -24.5625 C 126 -17.519531 118.679688 -11.523438 108.984375 -6.578125 C 99.285156 -1.640625 87.570312 0.828125 73.84375 0.828125 C 53.53125 0.828125 36.875 -4.296875 23.875 -14.546875 C 10.882812 -24.796875 4.390625 -39.710938 4.390625 -59.296875 C 4.390625 -64.785156 5.125 -71.191406 6.59375 -78.515625 C 11.164062 -101.023438 21.179688 -118 36.640625 -129.4375 C 52.109375 -140.875 70.914062 -146.59375 93.0625 -146.59375 Z M 68.625 -81.8125 C 69.363281 -81.625 70.375 -81.53125 71.65625 -81.53125 C 79.332031 -81.53125 85.179688 -85.097656 89.203125 -92.234375 C 93.234375 -99.367188 95.160156 -107.332031 94.984375 -116.125 C 94.796875 -121.25 93.332031 -123.8125 90.59375 -123.8125 C 88.582031 -123.8125 86.203125 -122.207031 83.453125 -119 C 80.703125 -115.800781 78 -111 75.34375 -104.59375 C 72.695312 -98.1875 70.457031 -90.59375 68.625 -81.8125 Z M 68.625 -81.8125 "/></g></g></g><g fill="#3cb5ee" fill-opacity="1"><g transform="translate(1376.585111, 1160.769721)"><g><path d="M 102.671875 -184.46875 C 112.921875 -184.46875 122.390625 -183.234375 131.078125 -180.765625 C 139.773438 -178.296875 148.609375 -174.410156 157.578125 -169.109375 L 163.890625 -174.3125 C 168.273438 -177.789062 171.882812 -180.171875 174.71875 -181.453125 C 177.5625 -182.734375 180.8125 -183.375 184.46875 -183.375 C 188.863281 -183.375 192.34375 -182.410156 194.90625 -180.484375 C 197.46875 -178.566406 198.75 -175.78125 198.75 -172.125 C 198.75 -170.65625 198.472656 -169.097656 197.921875 -167.453125 L 186.390625 -129.578125 C 185.109375 -125.179688 183.503906 -122.066406 181.578125 -120.234375 C 179.660156 -118.410156 176.78125 -117.5 172.9375 -117.5 C 168.914062 -117.5 165.394531 -118.734375 162.375 -121.203125 C 159.351562 -123.671875 154.640625 -128.75 148.234375 -136.4375 C 141.828125 -143.757812 136.015625 -148.925781 130.796875 -151.9375 C 125.585938 -154.957031 120.238281 -156.46875 114.75 -156.46875 C 110.71875 -156.46875 107.328125 -155.140625 104.578125 -152.484375 C 101.835938 -149.835938 100.46875 -146.59375 100.46875 -142.75 C 100.46875 -138.351562 102.664062 -134.28125 107.0625 -130.53125 C 111.457031 -126.78125 118.320312 -122.066406 127.65625 -116.390625 C 137.164062 -110.722656 145.03125 -105.597656 151.25 -101.015625 C 157.476562 -96.441406 162.785156 -90.769531 167.171875 -84 C 171.566406 -77.226562 173.765625 -69.453125 173.765625 -60.671875 C 173.765625 -54.992188 172.847656 -49.316406 171.015625 -43.640625 C 166.628906 -29.003906 158.117188 -17.890625 145.484375 -10.296875 C 132.859375 -2.703125 118.128906 1.09375 101.296875 1.09375 C 88.671875 1.09375 78.054688 -0.367188 69.453125 -3.296875 C 60.847656 -6.222656 52.0625 -11.164062 43.09375 -18.125 L 33.21875 -9.875 C 28.644531 -6.039062 24.890625 -3.4375 21.953125 -2.0625 C 19.023438 -0.6875 15.734375 0 12.078125 0 C 7.867188 0 4.53125 -1.003906 2.0625 -3.015625 C -0.40625 -5.035156 -1.640625 -7.78125 -1.640625 -11.25 C -1.640625 -13.082031 -1.273438 -15.003906 -0.546875 -17.015625 L 12.90625 -57.921875 C 14.363281 -62.679688 16.375 -66.066406 18.9375 -68.078125 C 21.5 -70.085938 24.796875 -71.09375 28.828125 -71.09375 C 33.035156 -71.09375 36.832031 -69.628906 40.21875 -66.703125 C 43.601562 -63.773438 48.039062 -58.46875 53.53125 -50.78125 C 59.382812 -42.363281 64.828125 -36.507812 69.859375 -33.21875 C 74.890625 -29.925781 80.882812 -28.28125 87.84375 -28.28125 C 92.78125 -28.28125 96.578125 -29.054688 99.234375 -30.609375 C 101.890625 -32.160156 103.765625 -34.675781 104.859375 -38.15625 C 105.222656 -39.070312 105.40625 -40.445312 105.40625 -42.28125 C 105.40625 -46.664062 103.300781 -50.6875 99.09375 -54.34375 C 94.882812 -58.007812 88.390625 -62.40625 79.609375 -67.53125 C 70.273438 -73.207031 62.679688 -78.285156 56.828125 -82.765625 C 50.972656 -87.242188 45.894531 -92.867188 41.59375 -99.640625 C 37.289062 -106.421875 35.140625 -114.382812 35.140625 -123.53125 C 35.140625 -129.9375 36.144531 -136.25 38.15625 -142.46875 C 42 -155.101562 49.867188 -165.257812 61.765625 -172.9375 C 73.660156 -180.625 87.296875 -184.46875 102.671875 -184.46875 Z M 102.671875 -184.46875 "/></g></g></g><g fill="#3cb5ee" fill-opacity="1"><g transform="translate(1565.72563, 1160.769721)"><g><path d="M 93.0625 -146.59375 C 116.300781 -146.59375 133.132812 -142.882812 143.5625 -135.46875 C 154 -128.0625 159.21875 -118.59375 159.21875 -107.0625 C 159.21875 -103.582031 158.851562 -100.378906 158.125 -97.453125 C 155.375 -85.367188 147.726562 -76.71875 135.1875 -71.5 C 122.65625 -66.289062 107.878906 -63.6875 90.859375 -63.6875 C 82.265625 -63.6875 74.210938 -64.234375 66.703125 -65.328125 C 66.523438 -55.816406 69.085938 -49.140625 74.390625 -45.296875 C 79.703125 -41.453125 87.113281 -39.53125 96.625 -39.53125 C 101.019531 -39.53125 105.226562 -40.03125 109.25 -41.03125 C 113.28125 -42.039062 118.40625 -43.550781 124.625 -45.5625 C 129.75 -47.394531 133.226562 -48.3125 135.0625 -48.3125 C 137.070312 -48.3125 138.078125 -47.125 138.078125 -44.75 C 138.265625 -38.34375 135.882812 -31.613281 130.9375 -24.5625 C 126 -17.519531 118.679688 -11.523438 108.984375 -6.578125 C 99.285156 -1.640625 87.570312 0.828125 73.84375 0.828125 C 53.53125 0.828125 36.875 -4.296875 23.875 -14.546875 C 10.882812 -24.796875 4.390625 -39.710938 4.390625 -59.296875 C 4.390625 -64.785156 5.125 -71.191406 6.59375 -78.515625 C 11.164062 -101.023438 21.179688 -118 36.640625 -129.4375 C 52.109375 -140.875 70.914062 -146.59375 93.0625 -146.59375 Z M 68.625 -81.8125 C 69.363281 -81.625 70.375 -81.53125 71.65625 -81.53125 C 79.332031 -81.53125 85.179688 -85.097656 89.203125 -92.234375 C 93.234375 -99.367188 95.160156 -107.332031 94.984375 -116.125 C 94.796875 -121.25 93.332031 -123.8125 90.59375 -123.8125 C 88.582031 -123.8125 86.203125 -122.207031 83.453125 -119 C 80.703125 -115.800781 78 -111 75.34375 -104.59375 C 72.695312 -98.1875 70.457031 -90.59375 68.625 -81.8125 Z M 68.625 -81.8125 "/></g></g></g><g fill="#3cb5ee" fill-opacity="1"><g transform="translate(1719.45374, 1160.769721)"><g><path d="M 122.703125 -141.65625 C 126.179688 -141.65625 128.878906 -140.921875 130.796875 -139.453125 C 132.722656 -137.992188 133.6875 -135.984375 133.6875 -133.421875 C 133.6875 -132.679688 133.503906 -131.398438 133.140625 -129.578125 C 130.765625 -121.523438 125.273438 -117.5 116.671875 -117.5 L 100.75 -117.5 L 80.15625 -49.6875 C 79.238281 -46.9375 78.78125 -44.097656 78.78125 -41.171875 C 78.78125 -37.878906 79.695312 -35.59375 81.53125 -34.3125 C 83.363281 -33.03125 85.925781 -32.390625 89.21875 -32.390625 C 92.144531 -32.390625 95.804688 -32.753906 100.203125 -33.484375 C 102.398438 -34.035156 104.320312 -34.3125 105.96875 -34.3125 C 107.25 -34.3125 108.207031 -33.898438 108.84375 -33.078125 C 109.488281 -32.253906 109.8125 -31.203125 109.8125 -29.921875 C 109.988281 -26.265625 107.285156 -21.828125 101.703125 -16.609375 C 96.117188 -11.390625 88.566406 -6.90625 79.046875 -3.15625 C 69.535156 0.59375 59.015625 2.46875 47.484375 2.46875 C 35.046875 2.46875 25.070312 -0.363281 17.5625 -6.03125 C 10.0625 -11.707031 6.3125 -19.488281 6.3125 -29.375 C 6.3125 -33.945312 7.046875 -38.335938 8.515625 -42.546875 L 26.078125 -96.90625 C 26.992188 -100.019531 27.453125 -102.488281 27.453125 -104.3125 C 27.453125 -107.976562 26.582031 -111.09375 24.84375 -113.65625 C 23.101562 -116.21875 20.675781 -118.867188 17.5625 -121.609375 C 14.820312 -124.171875 12.898438 -126.320312 11.796875 -128.0625 C 10.703125 -129.800781 10.429688 -131.859375 10.984375 -134.234375 C 11.710938 -136.617188 13.265625 -138.453125 15.640625 -139.734375 C 18.023438 -141.015625 21.78125 -141.65625 26.90625 -141.65625 L 42.28125 -141.65625 L 59.5625 -158.9375 C 65.601562 -164.976562 71.140625 -169.1875 76.171875 -171.5625 C 81.210938 -173.945312 87.757812 -175.140625 95.8125 -175.140625 C 107.332031 -175.140625 113.09375 -170.75 113.09375 -161.96875 C 113.09375 -159.21875 112.726562 -156.65625 112 -154.28125 L 108.15625 -141.65625 Z M 122.703125 -141.65625 "/></g></g></g><g fill="#0097b2" fill-opacity="1"><g transform="translate(1837.495225, 1160.769721)"><g><path d="M 81.25 1.640625 C 68.988281 1.640625 57.867188 -1.054688 47.890625 -6.453125 C 37.921875 -11.847656 30.007812 -19.804688 24.15625 -30.328125 C 18.300781 -40.859375 15.375 -53.441406 15.375 -68.078125 C 15.375 -79.242188 17.296875 -91.6875 21.140625 -105.40625 C 29.554688 -134.695312 42.773438 -155.378906 60.796875 -167.453125 C 78.828125 -179.535156 98.09375 -185.578125 118.59375 -185.578125 C 137.257812 -185.578125 154.097656 -178.804688 169.109375 -165.265625 L 177.34375 -173.21875 C 181.914062 -177.0625 185.847656 -179.710938 189.140625 -181.171875 C 192.429688 -182.640625 196.273438 -183.375 200.671875 -183.375 C 205.429688 -183.375 209.273438 -182.226562 212.203125 -179.9375 C 215.128906 -177.65625 216.59375 -174.59375 216.59375 -170.75 C 216.59375 -169.28125 216.316406 -167.539062 215.765625 -165.53125 L 205.890625 -130.9375 C 204.054688 -125.082031 201.90625 -120.960938 199.4375 -118.578125 C 196.96875 -116.203125 193.628906 -115.015625 189.421875 -115.015625 C 185.023438 -115.015625 181.132812 -116.113281 177.75 -118.3125 C 174.363281 -120.507812 170.472656 -124.445312 166.078125 -130.125 C 160.222656 -137.8125 155.050781 -143.253906 150.5625 -146.453125 C 146.082031 -149.660156 141.191406 -151.265625 135.890625 -151.265625 C 127.648438 -151.265625 119.820312 -147.097656 112.40625 -138.765625 C 105 -130.441406 98.550781 -116.578125 93.0625 -97.171875 C 89.582031 -84.546875 87.84375 -73.660156 87.84375 -64.515625 C 87.84375 -54.816406 89.71875 -47.445312 93.46875 -42.40625 C 97.21875 -37.375 102.476562 -34.859375 109.25 -34.859375 C 115.113281 -34.859375 119.644531 -36.226562 122.84375 -38.96875 C 126.050781 -41.71875 128.566406 -46.476562 130.390625 -53.25 L 132.3125 -60.125 C 133.226562 -63.78125 133.6875 -66.25 133.6875 -67.53125 C 133.6875 -69.726562 133.179688 -71.28125 132.171875 -72.1875 C 131.171875 -73.101562 129.476562 -74.113281 127.09375 -75.21875 L 117.5 -78.78125 C 113.28125 -80.425781 111.171875 -83.445312 111.171875 -87.84375 C 111.171875 -89.125 111.265625 -90.128906 111.453125 -90.859375 C 112.179688 -93.242188 113.503906 -94.984375 115.421875 -96.078125 C 117.347656 -97.179688 120.328125 -97.734375 124.359375 -97.734375 L 207.265625 -97.453125 C 213.296875 -97.453125 216.3125 -95.53125 216.3125 -91.6875 C 216.3125 -90.957031 216.128906 -89.859375 215.765625 -88.390625 C 215.035156 -85.648438 213.847656 -83.453125 212.203125 -81.796875 C 210.554688 -80.148438 208.175781 -78.503906 205.0625 -76.859375 L 197.921875 -72.75 C 196.097656 -71.644531 194.726562 -70.585938 193.8125 -69.578125 C 192.894531 -68.578125 192.253906 -67.347656 191.890625 -65.890625 L 177.34375 -15.09375 C 175.507812 -9.0625 173.445312 -5.035156 171.15625 -3.015625 C 168.875 -1.003906 166.082031 0 162.78125 0 L 151.265625 0 C 146.867188 0 143.25 -0.910156 140.40625 -2.734375 C 137.570312 -4.566406 135.242188 -8.140625 133.421875 -13.453125 L 130.671875 -21.40625 C 117.492188 -6.039062 101.019531 1.640625 81.25 1.640625 Z M 81.25 1.640625 "/></g></g></g><g fill="#0097b2" fill-opacity="1"><g transform="translate(2045.302725, 1160.769721)"><g><path d="M 106.234375 -145.21875 C 131.128906 -145.21875 149.476562 -140.179688 161.28125 -130.109375 C 173.082031 -120.046875 178.984375 -106.875 178.984375 -90.59375 C 178.984375 -85.101562 178.25 -78.972656 176.78125 -72.203125 C 173.3125 -57.191406 166.816406 -44.054688 157.296875 -32.796875 C 147.773438 -21.546875 136.109375 -12.851562 122.296875 -6.71875 C 108.484375 -0.59375 93.519531 2.46875 77.40625 2.46875 C 51.96875 2.46875 33.164062 -2.609375 21 -12.765625 C 8.832031 -22.921875 2.75 -36.414062 2.75 -53.25 C 2.75 -58.925781 3.476562 -65.242188 4.9375 -72.203125 C 8.414062 -86.472656 15.050781 -99.144531 24.84375 -110.21875 C 34.632812 -121.289062 46.617188 -129.890625 60.796875 -136.015625 C 74.984375 -142.148438 90.128906 -145.21875 106.234375 -145.21875 Z M 105.40625 -120.78125 C 101.570312 -120.78125 97.503906 -117.347656 93.203125 -110.484375 C 88.898438 -103.628906 83.820312 -90.6875 77.96875 -71.65625 C 72.101562 -52.613281 69.171875 -39.25 69.171875 -31.5625 C 69.171875 -27.539062 69.8125 -24.84375 71.09375 -23.46875 C 72.375 -22.09375 74.113281 -21.40625 76.3125 -21.40625 C 80.15625 -21.039062 84.132812 -24.332031 88.25 -31.28125 C 92.375 -38.238281 97.546875 -51.785156 103.765625 -71.921875 C 109.441406 -89.671875 112.28125 -102.570312 112.28125 -110.625 C 112.28125 -114.46875 111.679688 -117.117188 110.484375 -118.578125 C 109.296875 -120.046875 107.601562 -120.78125 105.40625 -120.78125 Z M 105.40625 -120.78125 "/></g></g></g><path stroke-linecap="round" transform="matrix(0.75, 0, 0, 0.75, 1171.934843, 818.019751)" fill="none" stroke-linejoin="miter" d="M 24.998337 24.99971 L 214.076478 24.99971 " stroke="#545454" stroke-width="50" stroke-opacity="1" stroke-miterlimit="4"/><path stroke-linecap="round" transform="matrix(0.75, -0.000000000000000651, 0.000000000000000651, 0.75, 1111.405288, 709.758208)" fill="none" stroke-linejoin="miter" d="M 25.001285 24.999475 L 238.714845 24.999475 " stroke="#0097b2" stroke-width="50" stroke-opacity="1" stroke-miterlimit="4"/><path stroke-linecap="round" transform="matrix(0.75, 0, 0, 0.75, 1058.281148, 601.496185)" fill="none" stroke-linejoin="miter" d="M 25.000138 24.999881 L 309.547037 24.999881 " stroke="#3cb5ee" stroke-width="50" stroke-opacity="1" stroke-miterlimit="4"/><path stroke-linecap="round" transform="matrix(0.749973, 0.00636212, -0.00636212, 0.749973, 1174.336139, 498.464458)" fill="none" stroke-linejoin="miter" d="M 24.999144 24.997687 L 214.089301 24.997833 " stroke="#fbb03b" stroke-width="50" stroke-opacity="1" stroke-miterlimit="4"/><g clip-path="url(#ee249bf890)"><g clip-path="url(#326a1e7d8a)"><g transform="matrix(1, 0, 0, 1, 1335, 429)"><g clip-path="url(#bb0b67220a)"><g clip-path="url(#cc00ac1c08)"><g clip-path="url(#0140cd9b16)"><path fill="#ffffff" d="M 0.71875 0.222656 L 486.71875 0.222656 L 486.71875 486.222656 L 0.71875 486.222656 Z M 0.71875 0.222656 " fill-opacity="1" fill-rule="nonzero"/></g></g></g></g><path stroke-linecap="butt" transform="matrix(0.75, 0, 0, 0.75, 1335.718773, 429.221656)" fill="none" stroke-linejoin="miter" d="M 323.999997 0.00133424 C 145.057274 0.00133424 -0.000030468 145.058638 -0.000030468 324.001362 C -0.000030468 502.938877 145.057274 648.001389 323.999997 648.001389 C 502.942721 648.001389 648.000025 502.938877 648.000025 324.001362 C 648.000025 145.058638 502.942721 0.00133424 323.999997 0.00133424 Z M 323.999997 0.00133424 " stroke="#000000" stroke-width="80" stroke-opacity="1" stroke-miterlimit="4"/></g></g><g clip-path="url(#ce6a44149f)"><g clip-path="url(#6814df30f1)"><g transform="matrix(1, 0, 0, 1, 1545, 638)"><g clip-path="url(#45974ddeba)"><g clip-path="url(#02b080ac55)"><g clip-path="url(#2f09fcbb06)"><path fill="#000000" d="M 0.492188 0.996094 L 66.945312 0.996094 L 66.945312 67.449219 L 0.492188 67.449219 Z M 0.492188 0.996094 " fill-opacity="1" fill-rule="nonzero"/></g></g></g></g></g></g><path stroke-linecap="butt" transform="matrix(0.505029, -0.554478, 0.554478, 0.505029, 1570.399969, 664.642892)" fill="none" stroke-linejoin="miter" d="M 0.00103613 15.001972 L 197.185359 14.998726 " stroke="#000000" stroke-width="30" stroke-opacity="1" stroke-miterlimit="4"/><path stroke-linecap="butt" transform="matrix(-0.429131, -0.615099, 0.615099, -0.429131, 1560.261602, 672.220243)" fill="none" stroke-linejoin="miter" d="M -0.00219316 14.998783 L 240.303165 15.000849 " stroke="#000000" stroke-width="30" stroke-opacity="1" stroke-miterlimit="4"/><path stroke-linecap="round" transform="matrix(0.75, 0, 0, 0.75, 1537.468756, 375.68198)" fill="none" stroke-linejoin="miter" d="M 19.999994 20.002153 L 90 20.002153 " stroke="#000000" stroke-width="40" stroke-opacity="1" stroke-miterlimit="4"/><path stroke-linecap="round" transform="matrix(0.555148, 0.504292, -0.504292, 0.555148, 1741.833202, 415.571657)" fill="none" stroke-linejoin="miter" d="M 20.002356 20.000126 L 90.001678 20.001331 " stroke="#000000" stroke-width="40" stroke-opacity="1" stroke-miterlimit="4"/></svg>