<svg xmlns="http://www.w3.org/2000/svg" xmlns:xlink="http://www.w3.org/1999/xlink" width="3000" zoomAndPan="magnify" viewBox="0 0 2250 2250.000011" height="3000" preserveAspectRatio="xMidYMid meet" version="1.0"><defs><g/><clipPath id="c94f07077b"><path d="M 0.0507812 738 L 2026.667969 738 L 2026.667969 1254.832031 L 0.0507812 1254.832031 Z M 0.0507812 738 " clip-rule="nonzero"/></clipPath><clipPath id="02e64afbb2"><rect x="0" width="2027" y="0" height="517"/></clipPath><clipPath id="4308bd4b3c"><path d="M 420 0.667969 L 1151 0.667969 L 1151 547 L 420 547 Z M 420 0.667969 " clip-rule="nonzero"/></clipPath><clipPath id="2280ebffb8"><path d="M 878.515625 157.433594 L 1505.28125 157.433594 L 1505.28125 784.199219 L 878.515625 784.199219 Z M 878.515625 157.433594 " clip-rule="nonzero"/></clipPath><clipPath id="b47d2833b3"><path d="M 1191.898438 157.433594 C 1018.820312 157.433594 878.515625 297.738281 878.515625 470.816406 C 878.515625 643.894531 1018.820312 784.199219 1191.898438 784.199219 C 1364.972656 784.199219 1505.28125 643.894531 1505.28125 470.816406 C 1505.28125 297.738281 1364.972656 157.433594 1191.898438 157.433594 Z M 1191.898438 157.433594 " clip-rule="nonzero"/></clipPath><clipPath id="30386e61f3"><path d="M 0.515625 0.433594 L 627.28125 0.433594 L 627.28125 627.199219 L 0.515625 627.199219 Z M 0.515625 0.433594 " clip-rule="nonzero"/></clipPath><clipPath id="24086f1c4f"><path d="M 313.898438 0.433594 C 140.820312 0.433594 0.515625 140.738281 0.515625 313.816406 C 0.515625 486.894531 140.820312 627.199219 313.898438 627.199219 C 486.972656 627.199219 627.28125 486.894531 627.28125 313.816406 C 627.28125 140.738281 486.972656 0.433594 313.898438 0.433594 Z M 313.898438 0.433594 " clip-rule="nonzero"/></clipPath><clipPath id="9fef164b64"><rect x="0" width="628" y="0" height="628"/></clipPath><clipPath id="38907f4dce"><path d="M 1149.046875 427.964844 L 1234.746094 427.964844 L 1234.746094 513.664062 L 1149.046875 513.664062 Z M 1149.046875 427.964844 " clip-rule="nonzero"/></clipPath><clipPath id="7e4b783b44"><path d="M 1191.898438 427.964844 C 1168.230469 427.964844 1149.046875 447.152344 1149.046875 470.816406 C 1149.046875 494.480469 1168.230469 513.664062 1191.898438 513.664062 C 1215.5625 513.664062 1234.746094 494.480469 1234.746094 470.816406 C 1234.746094 447.152344 1215.5625 427.964844 1191.898438 427.964844 Z M 1191.898438 427.964844 " clip-rule="nonzero"/></clipPath><clipPath id="ce3272a890"><path d="M 0.046875 0.964844 L 85.746094 0.964844 L 85.746094 86.664062 L 0.046875 86.664062 Z M 0.046875 0.964844 " clip-rule="nonzero"/></clipPath><clipPath id="a03ef57603"><path d="M 42.898438 0.964844 C 19.230469 0.964844 0.046875 20.152344 0.046875 43.816406 C 0.046875 67.480469 19.230469 86.664062 42.898438 86.664062 C 66.5625 86.664062 85.746094 67.480469 85.746094 43.816406 C 85.746094 20.152344 66.5625 0.964844 42.898438 0.964844 Z M 42.898438 0.964844 " clip-rule="nonzero"/></clipPath><clipPath id="e2df81c838"><rect x="0" width="86" y="0" height="87"/></clipPath><clipPath id="fe600fbf9b"><path d="M 1184 0.667969 L 1673 0.667969 L 1673 432 L 1184 432 Z M 1184 0.667969 " clip-rule="nonzero"/></clipPath><clipPath id="b67b15a886"><rect x="0" width="2027" y="0" height="1255"/></clipPath></defs><g transform="matrix(1, 0, 0, 1, 112, 476)"><g clip-path="url(#b67b15a886)"><g clip-path="url(#c94f07077b)"><g transform="matrix(1, 0, 0, 1, -0.000000000000028422, 738)"><g clip-path="url(#02e64afbb2)"><g fill="#fbb03b" fill-opacity="1"><g transform="translate(0.102857, 363.139108)"><g><path d="M 283.578125 -235.78125 C 296.554688 -235.78125 303.046875 -230.472656 303.046875 -219.859375 C 303.046875 -216.546875 302.335938 -212.414062 300.921875 -207.46875 L 292.4375 -178.78125 C 289.832031 -170.050781 286.640625 -163.914062 282.859375 -160.375 C 279.085938 -156.832031 273.660156 -155.0625 266.578125 -155.0625 C 260.679688 -155.0625 256.140625 -156.59375 252.953125 -159.65625 C 249.765625 -162.726562 246.753906 -167.570312 243.921875 -174.1875 L 237.90625 -188.703125 C 236.019531 -193.179688 234.015625 -196.242188 231.890625 -197.890625 C 229.765625 -199.546875 226.460938 -200.375 221.984375 -200.375 L 213.828125 -200.375 L 168.875 -42.125 C 168.164062 -39.0625 167.8125 -36.347656 167.8125 -33.984375 C 167.8125 -31.148438 168.222656 -28.789062 169.046875 -26.90625 C 169.878906 -25.019531 171.117188 -23.015625 172.765625 -20.890625 C 174.890625 -17.585938 175.953125 -14.875 175.953125 -12.75 C 175.953125 -12.269531 175.71875 -11.085938 175.25 -9.203125 C 174.0625 -6.140625 171.753906 -3.898438 168.328125 -2.484375 C 164.910156 -1.066406 160.019531 -0.359375 153.65625 -0.359375 L 70.453125 -0.359375 C 65.492188 -0.359375 61.65625 -1.179688 58.9375 -2.828125 C 56.226562 -4.484375 54.875 -6.84375 54.875 -9.90625 C 54.875 -11.320312 55.226562 -12.738281 55.9375 -14.15625 C 56.882812 -16.28125 58.003906 -17.875 59.296875 -18.9375 C 60.597656 -20 62.546875 -21.359375 65.140625 -23.015625 C 68.679688 -25.140625 71.628906 -27.5 73.984375 -30.09375 C 76.347656 -32.6875 78.359375 -36.695312 80.015625 -42.125 L 124.625 -200.375 L 116.46875 -200.375 C 111.28125 -200.375 107.035156 -199.546875 103.734375 -197.890625 C 100.429688 -196.242188 96.890625 -193.179688 93.109375 -188.703125 L 81.421875 -174.1875 C 75.992188 -167.8125 70.742188 -163.03125 65.671875 -159.84375 C 60.597656 -156.65625 55.109375 -155.0625 49.203125 -155.0625 C 43.773438 -155.0625 39.523438 -156.476562 36.453125 -159.3125 C 33.390625 -162.144531 31.859375 -166.039062 31.859375 -171 C 31.859375 -173.351562 32.210938 -175.945312 32.921875 -178.78125 L 42.125 -211 C 44.019531 -217.613281 46.144531 -222.628906 48.5 -226.046875 C 50.863281 -229.472656 54.226562 -231.953125 58.59375 -233.484375 C 62.957031 -235.015625 69.148438 -235.78125 77.171875 -235.78125 Z M 283.578125 -235.78125 "/></g></g></g><g fill="#fbb03b" fill-opacity="1"><g transform="translate(268.811229, 363.139108)"><g><path d="M 187.640625 -187.28125 C 198.023438 -187.28125 206.34375 -183.085938 212.59375 -174.703125 C 218.851562 -166.328125 221.984375 -154.941406 221.984375 -140.546875 C 221.984375 -128.035156 219.738281 -114.582031 215.25 -100.1875 C 206.519531 -71.15625 192.535156 -43.773438 173.296875 -18.046875 C 154.054688 7.671875 131.988281 28.316406 107.09375 43.890625 C 82.195312 59.472656 57.359375 67.265625 32.578125 67.265625 C 20.296875 67.265625 9.726562 65.140625 0.875 60.890625 C -7.96875 56.640625 -14.691406 50.972656 -19.296875 43.890625 C -23.898438 36.816406 -26.203125 29.265625 -26.203125 21.234375 C -26.203125 17.703125 -25.609375 13.8125 -24.421875 9.5625 C -22.296875 2.945312 -18.753906 -2.125 -13.796875 -5.65625 C -8.847656 -9.195312 -2.953125 -10.96875 3.890625 -10.96875 C 14.753906 -10.96875 23.664062 -7.253906 30.625 0.171875 C 37.582031 7.609375 42.007812 17.816406 43.90625 30.796875 C 59.007812 30.085938 72.929688 23.597656 85.671875 11.328125 C 73.640625 9.203125 64.726562 5.132812 58.9375 -0.875 C 53.15625 -6.894531 49.207031 -16.28125 47.09375 -29.03125 L 32.921875 -115.765625 C 32.210938 -120.253906 31.207031 -123.382812 29.90625 -125.15625 C 28.613281 -126.925781 26.90625 -127.8125 24.78125 -127.8125 C 23.125 -127.8125 21.175781 -126.984375 18.9375 -125.328125 C 16.695312 -123.671875 15.101562 -122.84375 14.15625 -122.84375 C 12.269531 -122.84375 11.328125 -124.851562 11.328125 -128.875 C 11.328125 -132.175781 11.914062 -135.710938 13.09375 -139.484375 C 17.34375 -152.941406 25.25 -164.332031 36.8125 -173.65625 C 48.382812 -182.976562 61.835938 -187.640625 77.171875 -187.640625 C 92.285156 -187.640625 103.441406 -183.15625 110.640625 -174.1875 C 117.835938 -165.21875 122.5 -151.410156 124.625 -132.765625 L 135.234375 -54.875 C 135.941406 -48.976562 138.066406 -46.03125 141.609375 -46.03125 C 145.859375 -46.03125 150.816406 -49.863281 156.484375 -57.53125 C 162.148438 -65.195312 167.695312 -76.113281 173.125 -90.28125 C 166.039062 -96.65625 160.609375 -103.972656 156.828125 -112.234375 C 153.054688 -120.492188 151.171875 -129.34375 151.171875 -138.78125 C 151.171875 -146.09375 152.113281 -152.703125 154 -158.609375 C 156.832031 -168.046875 161.257812 -175.179688 167.28125 -180.015625 C 173.300781 -184.859375 180.085938 -187.28125 187.640625 -187.28125 Z M 187.640625 -187.28125 "/></g></g></g><g fill="#fbb03b" fill-opacity="1"><g transform="translate(488.309497, 363.139108)"><g><path d="M 185.15625 -188.703125 C 203.332031 -188.703125 217.613281 -182.679688 228 -170.640625 C 238.382812 -158.609375 243.578125 -142.207031 243.578125 -121.4375 C 243.578125 -110.34375 242.039062 -98.660156 238.96875 -86.390625 C 231.882812 -57.117188 218.664062 -34.867188 199.3125 -19.640625 C 179.96875 -4.421875 157.546875 3.1875 132.046875 3.1875 C 115.765625 3.1875 101.601562 -0.234375 89.5625 -7.078125 L 78.234375 30.796875 C 77.296875 33.390625 76.828125 35.867188 76.828125 38.234375 C 76.828125 40.828125 77.414062 43.007812 78.59375 44.78125 C 79.769531 46.550781 81.304688 48.265625 83.203125 49.921875 C 85.085938 51.804688 86.320312 53.335938 86.90625 54.515625 C 87.5 55.703125 87.5625 57.117188 87.09375 58.765625 C 86.144531 61.835938 83.898438 64.019531 80.359375 65.3125 C 76.816406 66.613281 71.390625 67.265625 64.078125 67.265625 L -17 67.265625 C -23.132812 67.265625 -27.554688 66.257812 -30.265625 64.25 C -32.984375 62.25 -33.753906 59.710938 -32.578125 56.640625 C -32.097656 54.753906 -31.269531 53.21875 -30.09375 52.03125 C -28.914062 50.851562 -27.265625 49.796875 -25.140625 48.859375 C -21.597656 46.492188 -18.765625 44.070312 -16.640625 41.59375 C -14.515625 39.113281 -12.625 35.160156 -10.96875 29.734375 L 40.71875 -139.84375 C 41.425781 -141.96875 41.78125 -143.738281 41.78125 -145.15625 C 41.78125 -147.75 41.1875 -149.8125 40 -151.34375 C 38.820312 -152.882812 37.050781 -154.476562 34.6875 -156.125 C 32.332031 -158.007812 30.679688 -159.660156 29.734375 -161.078125 C 28.796875 -162.492188 28.679688 -164.382812 29.390625 -166.75 C 30.804688 -172.175781 38.238281 -176.953125 51.6875 -181.078125 C 65.144531 -185.210938 79.1875 -187.28125 93.8125 -187.28125 C 104.195312 -187.28125 112.753906 -184.679688 119.484375 -179.484375 C 126.210938 -174.296875 130.046875 -167.097656 130.984375 -157.890625 C 147.035156 -178.429688 165.09375 -188.703125 185.15625 -188.703125 Z M 144.09375 -83.546875 C 149.757812 -104.554688 152.59375 -119.070312 152.59375 -127.09375 C 152.59375 -132.050781 151.820312 -135.296875 150.28125 -136.828125 C 148.75 -138.367188 146.566406 -139.140625 143.734375 -139.140625 C 141.609375 -139.140625 138.894531 -138.132812 135.59375 -136.125 C 132.289062 -134.113281 128.988281 -130.75 125.6875 -126.03125 L 97.71875 -33.28125 C 100.550781 -30.445312 103.972656 -29.03125 107.984375 -29.03125 C 114.347656 -29.03125 120.421875 -32.628906 126.203125 -39.828125 C 131.992188 -47.023438 137.957031 -61.597656 144.09375 -83.546875 Z M 144.09375 -83.546875 "/></g></g></g><g fill="#fbb03b" fill-opacity="1"><g transform="translate(732.943911, 363.139108)"><g><path d="M 120.015625 -189.046875 C 149.992188 -189.046875 171.707031 -184.265625 185.15625 -174.703125 C 198.613281 -165.148438 205.34375 -152.941406 205.34375 -138.078125 C 205.34375 -133.585938 204.867188 -129.457031 203.921875 -125.6875 C 200.378906 -110.101562 190.523438 -98.945312 174.359375 -92.21875 C 158.191406 -85.5 139.132812 -82.140625 117.1875 -82.140625 C 106.09375 -82.140625 95.707031 -82.847656 86.03125 -84.265625 C 85.789062 -71.984375 89.09375 -63.363281 95.9375 -58.40625 C 102.78125 -53.457031 112.34375 -50.984375 124.625 -50.984375 C 130.28125 -50.984375 135.703125 -51.628906 140.890625 -52.921875 C 146.085938 -54.222656 152.703125 -56.171875 160.734375 -58.765625 C 167.335938 -61.128906 171.820312 -62.3125 174.1875 -62.3125 C 176.78125 -62.3125 178.078125 -60.773438 178.078125 -57.703125 C 178.316406 -49.441406 175.25 -40.769531 168.875 -31.6875 C 162.5 -22.601562 153.054688 -14.875 140.546875 -8.5 C 128.035156 -2.125 112.929688 1.0625 95.234375 1.0625 C 69.035156 1.0625 47.554688 -5.546875 30.796875 -18.765625 C 14.046875 -31.984375 5.671875 -51.21875 5.671875 -76.46875 C 5.671875 -83.550781 6.613281 -91.8125 8.5 -101.25 C 14.394531 -130.28125 27.3125 -152.171875 47.25 -166.921875 C 67.195312 -181.671875 91.453125 -189.046875 120.015625 -189.046875 Z M 88.515625 -105.5 C 89.453125 -105.257812 90.75 -105.140625 92.40625 -105.140625 C 102.3125 -105.140625 109.859375 -109.742188 115.046875 -118.953125 C 120.242188 -128.160156 122.726562 -138.425781 122.5 -149.75 C 122.257812 -156.363281 120.367188 -159.671875 116.828125 -159.671875 C 114.234375 -159.671875 111.164062 -157.601562 107.625 -153.46875 C 104.082031 -149.34375 100.597656 -143.148438 97.171875 -134.890625 C 93.753906 -126.628906 90.867188 -116.832031 88.515625 -105.5 Z M 88.515625 -105.5 "/></g></g></g><g fill="#3cb5ee" fill-opacity="1"><g transform="translate(931.200661, 363.139108)"><g><path d="M 132.40625 -237.90625 C 145.625 -237.90625 157.835938 -236.3125 169.046875 -233.125 C 180.253906 -229.9375 191.644531 -224.921875 203.21875 -218.078125 L 211.359375 -224.8125 C 217.023438 -229.289062 221.6875 -232.359375 225.34375 -234.015625 C 229 -235.671875 233.1875 -236.5 237.90625 -236.5 C 243.570312 -236.5 248.054688 -235.257812 251.359375 -232.78125 C 254.660156 -230.300781 256.3125 -226.703125 256.3125 -221.984375 C 256.3125 -220.085938 255.957031 -218.078125 255.25 -215.953125 L 240.390625 -167.109375 C 238.734375 -161.441406 236.664062 -157.425781 234.1875 -155.0625 C 231.707031 -152.707031 227.992188 -151.53125 223.046875 -151.53125 C 217.847656 -151.53125 213.300781 -153.117188 209.40625 -156.296875 C 205.507812 -159.484375 199.429688 -166.035156 191.171875 -175.953125 C 182.910156 -185.390625 175.414062 -192.054688 168.6875 -195.953125 C 161.96875 -199.847656 155.066406 -201.796875 147.984375 -201.796875 C 142.796875 -201.796875 138.429688 -200.082031 134.890625 -196.65625 C 131.347656 -193.238281 129.578125 -189.050781 129.578125 -184.09375 C 129.578125 -178.425781 132.40625 -173.171875 138.0625 -168.328125 C 143.726562 -163.492188 152.582031 -157.421875 164.625 -150.109375 C 176.894531 -142.796875 187.039062 -136.1875 195.0625 -130.28125 C 203.09375 -124.382812 209.941406 -117.066406 215.609375 -108.328125 C 221.273438 -99.597656 224.109375 -89.566406 224.109375 -78.234375 C 224.109375 -70.921875 222.925781 -63.609375 220.5625 -56.296875 C 214.894531 -37.410156 203.914062 -23.066406 187.625 -13.265625 C 171.34375 -3.472656 152.347656 1.421875 130.640625 1.421875 C 114.347656 1.421875 100.65625 -0.460938 89.5625 -4.234375 C 78.476562 -8.015625 67.148438 -14.390625 55.578125 -23.359375 L 42.84375 -12.75 C 36.9375 -7.789062 32.09375 -4.425781 28.3125 -2.65625 C 24.539062 -0.882812 20.296875 0 15.578125 0 C 10.148438 0 5.84375 -1.296875 2.65625 -3.890625 C -0.53125 -6.484375 -2.125 -10.023438 -2.125 -14.515625 C -2.125 -16.878906 -1.648438 -19.359375 -0.703125 -21.953125 L 16.640625 -74.703125 C 18.523438 -80.835938 21.117188 -85.203125 24.421875 -87.796875 C 27.734375 -90.390625 31.984375 -91.6875 37.171875 -91.6875 C 42.597656 -91.6875 47.492188 -89.796875 51.859375 -86.015625 C 56.234375 -82.242188 61.957031 -75.40625 69.03125 -65.5 C 76.582031 -54.632812 83.601562 -47.078125 90.09375 -42.828125 C 96.59375 -38.585938 104.328125 -36.46875 113.296875 -36.46875 C 119.660156 -36.46875 124.550781 -37.46875 127.96875 -39.46875 C 131.394531 -41.476562 133.816406 -44.722656 135.234375 -49.203125 C 135.710938 -50.390625 135.953125 -52.160156 135.953125 -54.515625 C 135.953125 -60.179688 133.234375 -65.375 127.796875 -70.09375 C 122.367188 -74.8125 113.992188 -80.476562 102.671875 -87.09375 C 90.628906 -94.40625 80.832031 -100.953125 73.28125 -106.734375 C 65.726562 -112.523438 59.175781 -119.785156 53.625 -128.515625 C 48.082031 -137.242188 45.3125 -147.507812 45.3125 -159.3125 C 45.3125 -167.570312 46.609375 -175.71875 49.203125 -183.75 C 54.160156 -200.03125 64.3125 -213.125 79.65625 -223.03125 C 95 -232.945312 112.582031 -237.90625 132.40625 -237.90625 Z M 132.40625 -237.90625 "/></g></g></g><g fill="#3cb5ee" fill-opacity="1"><g transform="translate(1175.127045, 363.139108)"><g><path d="M 120.015625 -189.046875 C 149.992188 -189.046875 171.707031 -184.265625 185.15625 -174.703125 C 198.613281 -165.148438 205.34375 -152.941406 205.34375 -138.078125 C 205.34375 -133.585938 204.867188 -129.457031 203.921875 -125.6875 C 200.378906 -110.101562 190.523438 -98.945312 174.359375 -92.21875 C 158.191406 -85.5 139.132812 -82.140625 117.1875 -82.140625 C 106.09375 -82.140625 95.707031 -82.847656 86.03125 -84.265625 C 85.789062 -71.984375 89.09375 -63.363281 95.9375 -58.40625 C 102.78125 -53.457031 112.34375 -50.984375 124.625 -50.984375 C 130.28125 -50.984375 135.703125 -51.628906 140.890625 -52.921875 C 146.085938 -54.222656 152.703125 -56.171875 160.734375 -58.765625 C 167.335938 -61.128906 171.820312 -62.3125 174.1875 -62.3125 C 176.78125 -62.3125 178.078125 -60.773438 178.078125 -57.703125 C 178.316406 -49.441406 175.25 -40.769531 168.875 -31.6875 C 162.5 -22.601562 153.054688 -14.875 140.546875 -8.5 C 128.035156 -2.125 112.929688 1.0625 95.234375 1.0625 C 69.035156 1.0625 47.554688 -5.546875 30.796875 -18.765625 C 14.046875 -31.984375 5.671875 -51.21875 5.671875 -76.46875 C 5.671875 -83.550781 6.613281 -91.8125 8.5 -101.25 C 14.394531 -130.28125 27.3125 -152.171875 47.25 -166.921875 C 67.195312 -181.671875 91.453125 -189.046875 120.015625 -189.046875 Z M 88.515625 -105.5 C 89.453125 -105.257812 90.75 -105.140625 92.40625 -105.140625 C 102.3125 -105.140625 109.859375 -109.742188 115.046875 -118.953125 C 120.242188 -128.160156 122.726562 -138.425781 122.5 -149.75 C 122.257812 -156.363281 120.367188 -159.671875 116.828125 -159.671875 C 114.234375 -159.671875 111.164062 -157.601562 107.625 -153.46875 C 104.082031 -149.34375 100.597656 -143.148438 97.171875 -134.890625 C 93.753906 -126.628906 90.867188 -116.832031 88.515625 -105.5 Z M 88.515625 -105.5 "/></g></g></g><g fill="#3cb5ee" fill-opacity="1"><g transform="translate(1373.383558, 363.139108)"><g><path d="M 158.25 -182.6875 C 162.738281 -182.6875 166.21875 -181.738281 168.6875 -179.84375 C 171.164062 -177.957031 172.40625 -175.363281 172.40625 -172.0625 C 172.40625 -171.113281 172.171875 -169.460938 171.703125 -167.109375 C 168.640625 -156.722656 161.5625 -151.53125 150.46875 -151.53125 L 129.921875 -151.53125 L 103.375 -64.078125 C 102.195312 -60.535156 101.609375 -56.878906 101.609375 -53.109375 C 101.609375 -48.859375 102.785156 -45.90625 105.140625 -44.25 C 107.503906 -42.601562 110.8125 -41.78125 115.0625 -41.78125 C 118.832031 -41.78125 123.550781 -42.25 129.21875 -43.1875 C 132.050781 -43.894531 134.53125 -44.25 136.65625 -44.25 C 138.3125 -44.25 139.550781 -43.71875 140.375 -42.65625 C 141.195312 -41.59375 141.609375 -40.238281 141.609375 -38.59375 C 141.847656 -33.875 138.367188 -28.148438 131.171875 -21.421875 C 123.972656 -14.691406 114.234375 -8.90625 101.953125 -4.0625 C 89.679688 0.769531 76.113281 3.1875 61.25 3.1875 C 45.195312 3.1875 32.332031 -0.46875 22.65625 -7.78125 C 12.976562 -15.101562 8.140625 -25.132812 8.140625 -37.875 C 8.140625 -43.78125 9.082031 -49.445312 10.96875 -54.875 L 33.640625 -124.96875 C 34.816406 -128.976562 35.40625 -132.164062 35.40625 -134.53125 C 35.40625 -139.25 34.28125 -143.257812 32.03125 -146.5625 C 29.789062 -149.875 26.664062 -153.296875 22.65625 -156.828125 C 19.113281 -160.140625 16.632812 -162.914062 15.21875 -165.15625 C 13.800781 -167.394531 13.445312 -170.050781 14.15625 -173.125 C 15.101562 -176.1875 17.109375 -178.546875 20.171875 -180.203125 C 23.242188 -181.859375 28.082031 -182.6875 34.6875 -182.6875 L 54.515625 -182.6875 L 76.828125 -204.984375 C 84.617188 -212.773438 91.757812 -218.203125 98.25 -221.265625 C 104.738281 -224.335938 113.175781 -225.875 123.5625 -225.875 C 138.425781 -225.875 145.859375 -220.207031 145.859375 -208.875 C 145.859375 -205.332031 145.382812 -202.03125 144.4375 -198.96875 L 139.484375 -182.6875 Z M 158.25 -182.6875 "/></g></g></g><g fill="#0097b2" fill-opacity="1"><g transform="translate(1525.627799, 363.139108)"><g><path d="M 104.796875 2.125 C 88.984375 2.125 74.644531 -1.351562 61.78125 -8.3125 C 48.914062 -15.28125 38.707031 -25.550781 31.15625 -39.125 C 23.601562 -52.695312 19.828125 -68.921875 19.828125 -87.796875 C 19.828125 -102.191406 22.304688 -118.242188 27.265625 -135.953125 C 38.117188 -173.710938 55.171875 -200.378906 78.421875 -215.953125 C 101.671875 -231.535156 126.507812 -239.328125 152.9375 -239.328125 C 177.007812 -239.328125 198.722656 -230.59375 218.078125 -213.125 L 228.703125 -223.390625 C 234.609375 -228.347656 239.679688 -231.769531 243.921875 -233.65625 C 248.171875 -235.550781 253.128906 -236.5 258.796875 -236.5 C 264.929688 -236.5 269.882812 -235.019531 273.65625 -232.0625 C 277.4375 -229.113281 279.328125 -225.160156 279.328125 -220.203125 C 279.328125 -218.316406 278.972656 -216.078125 278.265625 -213.484375 L 265.53125 -168.875 C 263.164062 -161.320312 260.390625 -156.007812 257.203125 -152.9375 C 254.015625 -149.875 249.707031 -148.34375 244.28125 -148.34375 C 238.613281 -148.34375 233.597656 -149.753906 229.234375 -152.578125 C 224.867188 -155.410156 219.851562 -160.488281 214.1875 -167.8125 C 206.632812 -177.726562 199.96875 -184.75 194.1875 -188.875 C 188.40625 -193.007812 182.09375 -195.078125 175.25 -195.078125 C 164.625 -195.078125 154.53125 -189.707031 144.96875 -178.96875 C 135.414062 -168.226562 127.097656 -150.347656 120.015625 -125.328125 C 115.535156 -109.046875 113.296875 -95.003906 113.296875 -83.203125 C 113.296875 -70.691406 115.710938 -61.191406 120.546875 -54.703125 C 125.390625 -48.210938 132.175781 -44.96875 140.90625 -44.96875 C 148.457031 -44.96875 154.296875 -46.734375 158.421875 -50.265625 C 162.554688 -53.804688 165.804688 -59.945312 168.171875 -68.6875 L 170.640625 -77.53125 C 171.816406 -82.25 172.40625 -85.4375 172.40625 -87.09375 C 172.40625 -89.925781 171.753906 -91.929688 170.453125 -93.109375 C 169.160156 -94.285156 166.984375 -95.582031 163.921875 -97 L 151.53125 -101.609375 C 146.09375 -103.734375 143.375 -107.628906 143.375 -113.296875 C 143.375 -114.941406 143.492188 -116.238281 143.734375 -117.1875 C 144.679688 -120.25 146.394531 -122.488281 148.875 -123.90625 C 151.351562 -125.320312 155.1875 -126.03125 160.375 -126.03125 L 267.296875 -125.6875 C 275.085938 -125.6875 278.984375 -123.207031 278.984375 -118.25 C 278.984375 -117.300781 278.742188 -115.882812 278.265625 -114 C 277.328125 -110.457031 275.796875 -107.625 273.671875 -105.5 C 271.546875 -103.375 268.476562 -101.25 264.46875 -99.125 L 255.25 -93.8125 C 252.894531 -92.394531 251.125 -91.035156 249.9375 -89.734375 C 248.757812 -88.441406 247.9375 -86.851562 247.46875 -84.96875 L 228.703125 -19.46875 C 226.335938 -11.675781 223.679688 -6.484375 220.734375 -3.890625 C 217.785156 -1.296875 214.1875 0 209.9375 0 L 195.078125 0 C 189.410156 0 184.742188 -1.175781 181.078125 -3.53125 C 177.421875 -5.894531 174.414062 -10.5 172.0625 -17.34375 L 168.515625 -27.609375 C 151.523438 -7.785156 130.285156 2.125 104.796875 2.125 Z M 104.796875 2.125 "/></g></g></g><g fill="#0097b2" fill-opacity="1"><g transform="translate(1793.62817, 363.139108)"><g><path d="M 137.015625 -187.28125 C 169.109375 -187.28125 192.765625 -180.789062 207.984375 -167.8125 C 223.210938 -154.832031 230.828125 -137.835938 230.828125 -116.828125 C 230.828125 -109.742188 229.882812 -101.835938 228 -93.109375 C 223.507812 -73.753906 215.128906 -56.816406 202.859375 -42.296875 C 190.585938 -27.785156 175.539062 -16.578125 157.71875 -8.671875 C 139.894531 -0.765625 120.601562 3.1875 99.84375 3.1875 C 67.03125 3.1875 42.773438 -3.359375 27.078125 -16.453125 C 11.390625 -29.554688 3.546875 -46.96875 3.546875 -68.6875 C 3.546875 -76 4.488281 -84.140625 6.375 -93.109375 C 10.851562 -111.515625 19.40625 -127.859375 32.03125 -142.140625 C 44.664062 -156.421875 60.128906 -167.515625 78.421875 -175.421875 C 96.710938 -183.328125 116.242188 -187.28125 137.015625 -187.28125 Z M 135.953125 -155.78125 C 130.992188 -155.78125 125.738281 -151.351562 120.1875 -142.5 C 114.644531 -133.644531 108.097656 -116.945312 100.546875 -92.40625 C 92.992188 -67.851562 89.21875 -50.625 89.21875 -40.71875 C 89.21875 -35.519531 90.039062 -32.035156 91.6875 -30.265625 C 93.34375 -28.492188 95.585938 -27.609375 98.421875 -27.609375 C 103.378906 -27.140625 108.507812 -31.390625 113.8125 -40.359375 C 119.125 -49.328125 125.796875 -66.789062 133.828125 -92.75 C 141.140625 -115.644531 144.796875 -132.285156 144.796875 -142.671875 C 144.796875 -147.628906 144.03125 -151.050781 142.5 -152.9375 C 140.96875 -154.832031 138.785156 -155.78125 135.953125 -155.78125 Z M 135.953125 -155.78125 "/></g></g></g></g></g></g><path stroke-linecap="round" transform="matrix(0.967231, 0, 0, 0.967231, 667.29199, 658.843331)" fill="none" stroke-linejoin="miter" d="M 24.999879 24.9993 L 214.078546 24.9993 " stroke="#545454" stroke-width="50" stroke-opacity="1" stroke-miterlimit="4"/><path stroke-linecap="round" transform="matrix(0.967231, -0.00000000000000084, 0.00000000000000084, 0.967231, 589.230591, 519.224333)" fill="none" stroke-linejoin="miter" d="M 24.998744 25.001175 L 238.712831 25.001175 " stroke="#0097b2" stroke-width="50" stroke-opacity="1" stroke-miterlimit="4"/><path stroke-linecap="round" transform="matrix(0.967231, 0, 0, 0.967231, 520.719299, 379.605405)" fill="none" stroke-linejoin="miter" d="M 24.9983 24.998933 L 309.545176 24.998933 " stroke="#3cb5ee" stroke-width="50" stroke-opacity="1" stroke-miterlimit="4"/><g clip-path="url(#4308bd4b3c)"><path stroke-linecap="round" transform="matrix(0.967197, 0.00820486, -0.00820486, 0.967197, 670.388749, 246.731184)" fill="none" stroke-linejoin="miter" d="M 24.999739 25.001003 L 214.085201 25.000342 " stroke="#fbb03b" stroke-width="50" stroke-opacity="1" stroke-miterlimit="4"/></g><g clip-path="url(#2280ebffb8)"><g clip-path="url(#b47d2833b3)"><g transform="matrix(1, 0, 0, 1, 878, 157)"><g clip-path="url(#9fef164b64)"><g clip-path="url(#30386e61f3)"><g clip-path="url(#24086f1c4f)"><path fill="#ffffff" d="M 0.515625 0.433594 L 627.28125 0.433594 L 627.28125 627.199219 L 0.515625 627.199219 Z M 0.515625 0.433594 " fill-opacity="1" fill-rule="nonzero"/></g></g></g></g><path stroke-linecap="butt" transform="matrix(0.967231, 0, 0, 0.967231, 878.514649, 157.433218)" fill="none" stroke-linejoin="miter" d="M 324.000862 0.000388461 C 145.059054 0.000388461 0.00100871 145.058434 0.00100871 324.000242 C 0.00100871 502.94205 145.059054 648.000096 324.000862 648.000096 C 502.938632 648.000096 648.000716 502.94205 648.000716 324.000242 C 648.000716 145.058434 502.938632 0.000388461 324.000862 0.000388461 Z M 324.000862 0.000388461 " stroke="#000000" stroke-width="77.506462" stroke-opacity="1" stroke-miterlimit="4"/></g></g><g clip-path="url(#38907f4dce)"><g clip-path="url(#7e4b783b44)"><g transform="matrix(1, 0, 0, 1, 1149, 427)"><g clip-path="url(#e2df81c838)"><g clip-path="url(#ce3272a890)"><g clip-path="url(#a03ef57603)"><path fill="#000000" d="M 0.046875 0.964844 L 85.746094 0.964844 L 85.746094 86.664062 L 0.046875 86.664062 Z M 0.046875 0.964844 " fill-opacity="1" fill-rule="nonzero"/></g></g></g></g></g></g><path stroke-linecap="butt" transform="matrix(0.651307, -0.715078, 0.715078, 0.651307, 1181.169189, 461.041363)" fill="none" stroke-linejoin="miter" d="M -0.00174577 15.000441 L 197.185503 15.00086 " stroke="#000000" stroke-width="30" stroke-opacity="1" stroke-miterlimit="4"/><path stroke-linecap="butt" transform="matrix(-0.553425, -0.793258, 0.793258, -0.553425, 1168.094521, 470.813323)" fill="none" stroke-linejoin="miter" d="M 0.000906129 14.999125 L 240.302214 14.999619 " stroke="#000000" stroke-width="30" stroke-opacity="1" stroke-miterlimit="4"/><path stroke-linecap="round" transform="matrix(0.967231, 0, 0, 0.967231, 1138.699978, 88.38557)" fill="none" stroke-linejoin="miter" d="M 19.998309 20.000281 L 89.999175 20.000281 " stroke="#000000" stroke-width="40" stroke-opacity="1" stroke-miterlimit="4"/><g clip-path="url(#fe600fbf9b)"><path stroke-linecap="round" transform="matrix(0.715942, 0.650356, -0.650356, 0.715942, 1402.256696, 139.829286)" fill="none" stroke-linejoin="miter" d="M 20.002149 19.99944 L 89.999066 20.000136 " stroke="#000000" stroke-width="40" stroke-opacity="1" stroke-miterlimit="4"/></g></g></g></svg>