<svg xmlns="http://www.w3.org/2000/svg" xmlns:xlink="http://www.w3.org/1999/xlink" width="3000" zoomAndPan="magnify" viewBox="0 0 2250 2250.000011" height="3000" preserveAspectRatio="xMidYMid meet" version="1.0"><defs><clipPath id="87acc7f5c0"><path d="M 126 300 L 2249.5 300 L 2249.5 2089 L 126 2089 Z M 126 300 " clip-rule="nonzero"/></clipPath><clipPath id="deadf6891c"><path d="M 0.445312 709 L 657 709 L 657 808 L 0.445312 808 Z M 0.445312 709 " clip-rule="nonzero"/></clipPath><clipPath id="32ab24a5ec"><path d="M 0.445312 0.585938 L 1279 0.585938 L 1279 1048 L 0.445312 1048 Z M 0.445312 0.585938 " clip-rule="nonzero"/></clipPath><clipPath id="ac995a5fd7"><path d="M 726.230469 258.90625 L 1997.46875 258.90625 L 1997.46875 1530.140625 L 726.230469 1530.140625 Z M 726.230469 258.90625 " clip-rule="nonzero"/></clipPath><clipPath id="b36ef24e36"><path d="M 1361.847656 258.90625 C 1010.804688 258.90625 726.230469 543.480469 726.230469 894.523438 C 726.230469 1245.566406 1010.804688 1530.140625 1361.847656 1530.140625 C 1712.890625 1530.140625 1997.46875 1245.566406 1997.46875 894.523438 C 1997.46875 543.480469 1712.890625 258.90625 1361.847656 258.90625 Z M 1361.847656 258.90625 " clip-rule="nonzero"/></clipPath><clipPath id="2a1903ae21"><path d="M 0.230469 0.90625 L 1271.46875 0.90625 L 1271.46875 1272.140625 L 0.230469 1272.140625 Z M 0.230469 0.90625 " clip-rule="nonzero"/></clipPath><clipPath id="ff4e579c6c"><path d="M 635.847656 0.90625 C 284.804688 0.90625 0.230469 285.480469 0.230469 636.523438 C 0.230469 987.566406 284.804688 1272.140625 635.847656 1272.140625 C 986.890625 1272.140625 1271.46875 987.566406 1271.46875 636.523438 C 1271.46875 285.480469 986.890625 0.90625 635.847656 0.90625 Z M 635.847656 0.90625 " clip-rule="nonzero"/></clipPath><clipPath id="14135be039"><rect x="0" width="1272" y="0" height="1273"/></clipPath><clipPath id="cd7f924484"><path d="M 726.230469 258.90625 L 1997.46875 258.90625 L 1997.46875 1530.140625 L 726.230469 1530.140625 Z M 726.230469 258.90625 " clip-rule="nonzero"/></clipPath><clipPath id="a5b50c27f3"><path d="M 1361.847656 258.902344 C 1010.804688 258.902344 726.230469 543.480469 726.230469 894.523438 C 726.230469 1245.566406 1010.804688 1530.140625 1361.847656 1530.140625 C 1712.890625 1530.140625 1997.46875 1245.566406 1997.46875 894.523438 C 1997.46875 543.480469 1712.890625 258.902344 1361.847656 258.902344 Z M 1361.847656 258.902344 " clip-rule="nonzero"/></clipPath><clipPath id="eb31e515c8"><path d="M 1274.9375 807.613281 L 1448.757812 807.613281 L 1448.757812 981.433594 L 1274.9375 981.433594 Z M 1274.9375 807.613281 " clip-rule="nonzero"/></clipPath><clipPath id="deca955f97"><path d="M 1361.847656 807.613281 C 1313.851562 807.613281 1274.9375 846.523438 1274.9375 894.523438 C 1274.9375 942.523438 1313.851562 981.433594 1361.847656 981.433594 C 1409.847656 981.433594 1448.757812 942.523438 1448.757812 894.523438 C 1448.757812 846.523438 1409.847656 807.613281 1361.847656 807.613281 Z M 1361.847656 807.613281 " clip-rule="nonzero"/></clipPath><clipPath id="2cb94cf597"><path d="M 0.9375 0.613281 L 174.757812 0.613281 L 174.757812 174.433594 L 0.9375 174.433594 Z M 0.9375 0.613281 " clip-rule="nonzero"/></clipPath><clipPath id="1dc3a6b88a"><path d="M 87.847656 0.613281 C 39.851562 0.613281 0.9375 39.523438 0.9375 87.523438 C 0.9375 135.523438 39.851562 174.433594 87.847656 174.433594 C 135.847656 174.433594 174.757812 135.523438 174.757812 87.523438 C 174.757812 39.523438 135.847656 0.613281 87.847656 0.613281 Z M 87.847656 0.613281 " clip-rule="nonzero"/></clipPath><clipPath id="96b8094252"><rect x="0" width="175" y="0" height="175"/></clipPath><clipPath id="140b5b6533"><path d="M 1347 0.585938 L 2123.5 0.585938 L 2123.5 815 L 1347 815 Z M 1347 0.585938 " clip-rule="nonzero"/></clipPath><clipPath id="b69a531242"><rect x="0" width="2124" y="0" height="1789"/></clipPath></defs><g clip-path="url(#87acc7f5c0)"><g transform="matrix(1, 0, 0, 1, 126, 300)"><g clip-path="url(#b69a531242)"><path stroke-linecap="round" transform="matrix(1.961785, 0, 0, 1.961785, 297.818567, 1275.888351)" fill="none" stroke-linejoin="miter" d="M 25.000046 25.000315 L 214.077696 25.000315 " stroke="#000000" stroke-width="50" stroke-opacity="1" stroke-miterlimit="4"/><path stroke-linecap="round" transform="matrix(1.961785, -0.000000000000001703, 0.000000000000001703, 1.961785, 139.49064, 992.706532)" fill="none" stroke-linejoin="miter" d="M 24.999945 24.999411 L 238.712367 24.999411 " stroke="#000000" stroke-width="50" stroke-opacity="1" stroke-miterlimit="4"/><g clip-path="url(#deadf6891c)"><path stroke-linecap="round" transform="matrix(1.961785, 0, 0, 1.961785, 0.532874, 709.524593)" fill="none" stroke-linejoin="miter" d="M 25.00032 25.000558 L 309.54468 25.000558 " stroke="#000000" stroke-width="50" stroke-opacity="1" stroke-miterlimit="4"/></g><g clip-path="url(#32ab24a5ec)"><path stroke-linecap="round" transform="matrix(1.961714, 0.0166415, -0.0166415, 1.961714, 304.099633, 440.022766)" fill="none" stroke-linejoin="miter" d="M 25.000048 24.99939 L 214.086487 25.000285 " stroke="#000000" stroke-width="50" stroke-opacity="1" stroke-miterlimit="4"/></g><g clip-path="url(#ac995a5fd7)"><g clip-path="url(#b36ef24e36)"><g transform="matrix(1, 0, 0, 1, 726, 258)"><g clip-path="url(#14135be039)"><g clip-path="url(#2a1903ae21)"><g clip-path="url(#ff4e579c6c)"><path fill="#ffffff" d="M 0.230469 0.90625 L 1271.46875 0.90625 L 1271.46875 1272.140625 L 0.230469 1272.140625 Z M 0.230469 0.90625 " fill-opacity="1" fill-rule="nonzero"/></g></g></g></g></g></g><g clip-path="url(#cd7f924484)"><g clip-path="url(#a5b50c27f3)"><path stroke-linecap="butt" transform="matrix(1.961785, 0, 0, 1.961785, 726.230418, 258.904275)" fill="none" stroke-linejoin="miter" d="M 323.999446 -0.000984504 C 145.05885 -0.000984504 0.0000258251 145.059831 0.0000258251 324.000427 C 0.0000258251 502.941023 145.05885 647.999848 323.999446 647.999848 C 502.940043 647.999848 648.000858 502.941023 648.000858 324.000427 C 648.000858 145.059831 502.940043 -0.000984504 323.999446 -0.000984504 Z M 323.999446 -0.000984504 " stroke="#000000" stroke-width="61.141609" stroke-opacity="1" stroke-miterlimit="4"/></g></g><g clip-path="url(#eb31e515c8)"><g clip-path="url(#deca955f97)"><g transform="matrix(1, 0, 0, 1, 1274, 807)"><g clip-path="url(#96b8094252)"><g clip-path="url(#2cb94cf597)"><g clip-path="url(#1dc3a6b88a)"><path fill="#000000" d="M 0.9375 0.613281 L 174.757812 0.613281 L 174.757812 174.433594 L 0.9375 174.433594 Z M 0.9375 0.613281 " fill-opacity="1" fill-rule="nonzero"/></g></g></g></g></g></g><path stroke-linecap="butt" transform="matrix(1.321012, -1.450355, 1.450355, 1.321012, 1340.088746, 874.697033)" fill="none" stroke-linejoin="miter" d="M 0.0000759747 14.999714 L 197.185361 14.999943 " stroke="#000000" stroke-width="30" stroke-opacity="1" stroke-miterlimit="4"/><path stroke-linecap="butt" transform="matrix(-1.122482, -1.608923, 1.608923, -1.122482, 1313.570213, 894.517048)" fill="none" stroke-linejoin="miter" d="M 0.000324144 14.999645 L 240.302814 15.000239 " stroke="#000000" stroke-width="30" stroke-opacity="1" stroke-miterlimit="4"/><path stroke-linecap="round" transform="matrix(1.961785, 0, 0, 1.961785, 1253.950616, 118.858612)" fill="none" stroke-linejoin="miter" d="M 20.000604 19.999714 L 90.000233 19.999714 " stroke="#000000" stroke-width="40" stroke-opacity="1" stroke-miterlimit="4"/><g clip-path="url(#140b5b6533)"><path stroke-linecap="round" transform="matrix(1.452108, 1.319084, -1.319084, 1.452108, 1788.509191, 223.199169)" fill="none" stroke-linejoin="miter" d="M 19.9987 19.999861 L 89.999049 19.999585 " stroke="#000000" stroke-width="40" stroke-opacity="1" stroke-miterlimit="4"/></g></g></g></g></svg>